<?xml version="1.0" encoding="UTF-8"?>
<svg version="1.1" xmlns="http://www.w3.org/2000/svg" width="512" height="512">
<path d="M0 0 C2.08873356 -0.00570832 4.17746401 -0.01267437 6.26618958 -0.02079773 C11.91922778 -0.03869475 17.57211047 -0.03756702 23.22516847 -0.03185534 C27.95403582 -0.02875798 32.68287354 -0.03486216 37.41173667 -0.04089409 C48.57366998 -0.05492687 59.73552675 -0.05338887 70.89746094 -0.04199219 C82.3900283 -0.03051679 93.88236214 -0.04457992 105.37489873 -0.07138866 C115.2622872 -0.09358452 125.14960258 -0.10017414 135.03701419 -0.09431225 C140.93331571 -0.09095023 146.82946763 -0.09330735 152.72574806 -0.11056328 C158.27366416 -0.12609186 163.82123593 -0.12201129 169.36913872 -0.10325813 C171.39712079 -0.09958837 173.4251287 -0.10263328 175.45308685 -0.11314392 C186.51985786 -0.1660912 196.04499853 0.17842095 206.42651367 4.40405273 C207.32592587 4.76128198 208.22533808 5.11851122 209.1520052 5.48656559 C223.26987453 11.4066684 232.42729682 24.18348569 238.30151367 37.77905273 C240.5741638 43.36284874 241.54527764 48.26453585 241.60351562 54.29248047 C241.61635086 55.45396103 241.6291861 56.61544159 241.64241028 57.81211853 C241.65349068 59.68100487 241.65349068 59.68100487 241.66479492 61.58764648 C241.67286667 62.87590836 241.68093842 64.16417023 241.68925476 65.49147034 C241.70423521 68.21403874 241.71409678 70.9365815 241.72167969 73.65917969 C241.73275814 77.13720439 241.76719353 80.61459183 241.80685139 84.09239101 C241.83935004 87.42411684 241.84379707 90.75577444 241.85229492 94.08764648 C241.86980301 95.33154648 241.8873111 96.57544647 241.90534973 97.85704041 C241.87843774 108.57037477 241.87843774 108.57037477 237.42651367 113.40405273 C233.21295229 117.30159702 230.65227955 118.23918119 225.05151367 118.65405273 C220.44028228 118.33603678 217.28137954 117.27891716 213.97729492 113.93920898 C210.71990138 110.12180509 209.31036751 107.86964323 209.25292969 102.92944336 C209.23943985 102.00087524 209.22595001 101.07230713 209.21205139 100.11560059 C209.19639381 98.60322815 209.19639381 98.60322815 209.18041992 97.06030273 C209.14745376 94.9248824 209.11424263 92.78946583 209.08081055 90.65405273 C209.0336005 87.28819639 208.98922854 83.92235217 208.94970703 80.55639648 C208.90967153 77.30752755 208.85817555 74.05898668 208.80541992 70.81030273 C208.79279869 69.32222107 208.79279869 69.32222107 208.77992249 67.80407715 C208.59880451 57.42385255 207.53647539 48.38108296 200.42651367 40.40405273 C193.22236736 34.18573697 184.32628999 33.0946831 175.09794617 33.14335632 C174.31059753 33.13953078 173.52324889 33.13570523 172.7120412 33.13176376 C170.1007635 33.12152963 167.48970965 33.1254075 164.87841797 33.12939453 C162.99510497 33.12504271 161.11179373 33.11985799 159.22848511 33.11390686 C154.13124738 33.10055534 149.03408398 33.09993397 143.93683219 33.10247016 C139.6726824 33.10354262 135.40854748 33.0986494 131.14440089 33.09386474 C121.07900327 33.08278256 111.01364296 33.0823247 100.94824219 33.08837891 C90.58553694 33.09441639 80.22296754 33.0821104 69.86028546 33.06080884 C60.94448252 33.04315948 52.02872269 33.03719679 43.11290294 33.04044658 C37.79623106 33.04225448 32.47965607 33.03967276 27.16300011 33.02573204 C22.16014346 33.01310421 17.15749763 33.01514449 12.15464401 33.02814293 C10.32619847 33.03049761 8.49773786 33.02781412 6.66930962 33.01951981 C-12.0880095 32.62112718 -12.0880095 32.62112718 -27.95239258 41.43530273 C-32.78947946 47.30974077 -34.69540755 53.45090069 -34.70491409 60.97798443 C-34.71067581 62.69021081 -34.71067581 62.69021081 -34.71655393 64.43702763 C-34.71568744 65.69157728 -34.71482096 66.94612693 -34.71392822 68.23869324 C-34.71651217 69.58454181 -34.71952542 70.93038961 -34.72293162 72.27623636 C-34.73100147 75.97814193 -34.73279119 79.68002811 -34.73352909 83.38194144 C-34.73537969 87.37322423 -34.74292709 91.36449695 -34.74966431 95.35577393 C-34.76324834 104.08520041 -34.76927254 112.81462231 -34.77367496 121.54405761 C-34.77643743 126.99491648 -34.78067481 132.44577357 -34.78517914 137.89663124 C-34.79737221 152.98868161 -34.80767124 168.08073057 -34.81105423 183.17278576 C-34.8112738 184.1387901 -34.81149336 185.10479443 -34.81171958 186.10007163 C-34.81193786 187.06838809 -34.81215614 188.03670454 -34.81238103 189.03436393 C-34.8128245 190.9965421 -34.81327106 192.95872027 -34.8137207 194.92089844 C-34.81405285 196.38086078 -34.81405285 196.38086078 -34.8143917 197.87031732 C-34.81833916 213.63909558 -34.83579142 229.40782761 -34.85908023 245.17658802 C-34.88279791 261.36644762 -34.89525628 277.55628403 -34.89642215 293.74616128 C-34.89733871 302.83602529 -34.90308616 311.92582908 -34.92124176 321.0156765 C-34.9366484 328.75651142 -34.9417599 336.49726751 -34.93350366 344.23811486 C-34.92959906 348.18656158 -34.93051734 352.13484959 -34.944561 356.08327675 C-34.95731147 359.7012576 -34.95609252 363.31896065 -34.94397029 366.93694118 C-34.94109242 368.85875884 -34.95294046 370.78058134 -34.96539235 372.70236081 C-34.91317411 381.85085633 -33.7543074 390.27233611 -27.57348633 397.40405273 C-19.86863591 402.96721592 -13.91011487 404.55533969 -4.47796631 404.54449463 C-3.66741736 404.54746575 -2.85686841 404.55043687 -2.02175736 404.55349803 C0.69180442 404.5621633 3.40532197 404.56369144 6.11889648 404.56518555 C8.06559849 404.56981525 10.01229959 404.57484012 11.95899963 404.58023071 C17.24632897 404.59334186 22.53364561 404.59979714 27.82098866 404.60424137 C31.12555168 404.60717411 34.43011126 404.61127929 37.73467255 404.61574554 C48.07754762 404.62941695 58.42041479 404.63908541 68.76329827 404.64294744 C80.69589501 404.64742776 92.62837717 404.66497601 104.56093907 404.69394803 C113.78913204 404.71557491 123.01729278 404.72565225 132.24551082 404.72698855 C137.75497898 404.72803583 143.26433938 404.73392742 148.77378082 404.75180817 C153.95795249 404.76830623 159.1419356 404.77043586 164.32612419 404.76166916 C166.22517083 404.76089972 168.12422768 404.76522913 170.02324867 404.77512741 C172.62340821 404.78788173 175.22290336 404.7819514 177.82305908 404.77154541 C178.94006789 404.78363002 178.94006789 404.78363002 180.07964253 404.79595876 C188.51301509 404.71746705 195.5531878 402.23140625 201.69995117 396.42749023 C207.83711662 389.23506557 208.5416746 380.51336393 208.56835938 371.37060547 C208.5718338 370.70622467 208.57530823 370.04184387 208.57888794 369.35733032 C208.58618766 367.92783362 208.5915635 366.498326 208.5951786 365.06881523 C208.6024074 362.80238263 208.61811785 360.5361587 208.63652039 358.26979065 C208.68871118 351.83060439 208.73698841 345.39154206 208.75244141 338.95214844 C208.76253914 335.00161539 208.79189555 331.05162379 208.83376122 327.10130501 C208.84603751 325.60191 208.85119864 324.10243851 208.84896278 322.60299492 C208.84660149 320.5041118 208.86883039 318.40677848 208.89648438 316.30810547 C208.90235062 315.11676498 208.90821686 313.9254245 208.91426086 312.69798279 C209.70945928 307.58463264 212.21164262 304.50039978 215.98901367 301.09155273 C220.24894015 298.14237287 224.38201932 297.88617689 229.42651367 298.40405273 C235.10158592 300.40701941 238.73326457 304.01755452 241.42651367 309.40405273 C241.54541156 311.88757571 241.60481862 314.34394967 241.61938477 316.82861328 C241.62756226 317.59485016 241.63573975 318.36108704 241.64416504 319.15054321 C241.66905372 321.6972781 241.68555641 324.24395652 241.69995117 326.79077148 C241.70527485 327.66385263 241.71059853 328.53693378 241.71608353 329.43647194 C241.742848 334.07026924 241.76220013 338.70403947 241.77661133 343.33789062 C241.78987362 347.15063889 241.81757678 350.96284214 241.85864258 354.77539062 C241.90838967 359.39434748 241.93278534 364.01281534 241.93983841 368.63202858 C241.94649025 370.38086086 241.96155064 372.12968488 241.98572922 373.87836266 C242.22876249 392.54172111 237.88414456 407.54688696 224.86401367 421.59155273 C208.8892584 436.74708978 190.08026039 439.01893202 169.0456543 438.92163086 C167.04957064 438.92706447 165.05349101 438.93419402 163.05741882 438.94287109 C157.6833946 438.96096008 152.30968078 438.95409703 146.93565178 438.94135475 C141.28306177 438.93115174 135.63049645 438.94064054 129.97790527 438.94689941 C120.48953533 438.9541547 111.00129037 438.94464392 101.51293945 438.92553711 C90.57924142 438.90377255 79.64584186 438.91082542 68.71215105 438.93284273 C59.28572826 438.9510573 49.85939476 438.95352554 40.43296003 438.94308805 C34.82002853 438.93688632 29.20723682 438.9359253 23.59431458 438.94923401 C18.31468202 438.96088046 13.03543028 438.95260777 7.75583839 438.92965698 C5.83070822 438.92441652 3.9055454 438.9258025 1.9804287 438.93470764 C-17.9862572 439.01847737 -36.51151412 435.91247865 -51.58129883 421.56030273 C-64.74231453 407.31543868 -69.05273166 390.30350313 -68.96116638 371.30644226 C-68.96535002 369.9330627 -68.97083313 368.5596866 -68.97748619 367.18631679 C-68.99182483 363.44978375 -68.98773279 359.71347346 -68.98031938 355.97692883 C-68.97556099 351.93248485 -68.98812107 347.88808723 -68.99833679 343.84365845 C-69.01547851 335.93453162 -69.01637439 328.02548439 -69.01112389 320.11634382 C-69.00707205 313.68323992 -69.00853776 307.25015944 -69.01387215 300.81705666 C-69.01462057 299.8992423 -69.01536899 298.98142794 -69.01614009 298.03580103 C-69.01767167 296.17087166 -69.01921002 294.30594231 -69.02075506 292.44101296 C-69.03446354 274.9761567 -69.0290542 257.51134532 -69.01756985 240.04649011 C-69.00764081 224.09546042 -69.0205754 208.14454679 -69.04450404 192.19353499 C-69.06893175 175.78525406 -69.0784938 159.3770271 -69.07185131 142.96872836 C-69.06836704 133.76866042 -69.07053859 124.56868167 -69.08810234 115.36862755 C-69.10287039 107.536321 -69.10339999 99.70416644 -69.08603143 91.87186273 C-69.07755647 87.88194505 -69.07528515 83.89229834 -69.09068298 79.90239525 C-69.17524498 56.28089503 -68.99542748 35.71618106 -51.78442383 17.61889648 C-51.05481445 16.88799805 -50.32520508 16.15709961 -49.57348633 15.40405273 C-49.00887695 14.8278418 -48.44426758 14.25163086 -47.86254883 13.65795898 C-42.88648751 8.98531604 -36.83661898 6.00700775 -30.57348633 3.40405273 C-29.98216069 3.14723693 -29.39083506 2.89042112 -28.78159046 2.62582302 C-19.5437451 -0.76983591 -9.69225519 -0.02391243 0 0 Z " fill="#000000" transform="translate(94.573486328125,47.595947265625)"/>
<path d="M0 0 C2.47521152 2.20146517 4.79345949 4.49844144 7.10140991 6.87476158 C8.43014381 8.19451485 8.43014381 8.19451485 9.78572083 9.54092979 C12.19501901 11.94220852 14.5851916 14.35982553 16.96800232 16.78721833 C19.47189936 19.33017782 21.99747392 21.85143964 24.52035522 24.37553978 C28.74993043 28.61341534 32.96411925 32.8660983 37.16830444 37.12915611 C42.02471728 42.05341024 46.8999037 46.95839696 51.78668118 51.85250789 C56.99970049 57.07340736 62.20117367 62.30568024 67.39803696 67.54265761 C68.89258804 69.04751915 70.38900379 70.55050641 71.88574219 72.05319214 C74.67402988 74.85430415 77.44901202 77.66837016 80.22250366 80.48413658 C81.05051987 81.31393532 81.87853607 82.14373405 82.73164368 82.99867821 C83.48562943 83.76834923 84.23961517 84.53802025 85.01644897 85.33101463 C85.6726825 85.99487332 86.32891602 86.65873201 87.0050354 87.34270763 C90.25225079 91.3653874 90.87123431 95.10267155 91.00765991 100.21338463 C89.76570751 107.59832739 84.18467279 112.25879403 79.12142944 117.28467369 C78.25120148 118.16015862 77.38097351 119.03564354 76.484375 119.93765831 C74.10557319 122.3273747 71.72025014 124.71017755 69.33123636 127.08965969 C66.82799367 129.58528462 64.33210421 132.08824651 61.83502197 134.59003258 C57.64225158 138.78825335 53.44321235 142.98012593 49.24057007 147.16846275 C44.38556796 152.00712911 39.54148202 156.85652242 34.70290387 161.71160817 C30.54271703 165.88541763 26.37670154 170.05334154 22.2057761 174.21641994 C19.71705335 176.70047181 17.23038729 179.18649148 14.74896622 181.67783928 C11.98324168 184.45385475 9.20534153 187.21748327 6.42611694 189.97998619 C5.60723999 190.80493584 4.78836304 191.62988548 3.94467163 192.4798336 C3.18485992 193.23118584 2.42504822 193.98253807 1.64221191 194.75665855 C0.98702639 195.41071301 0.33184086 196.06476746 -0.34319878 196.73864174 C-4.70811672 200.28471637 -8.83688712 200.84929383 -14.35562134 200.37354088 C-20.22978506 198.55052455 -22.85896056 196.20716018 -26.35562134 191.37354088 C-27.66328202 188.75821951 -27.67104897 186.67087929 -27.79312134 183.74854088 C-27.85370728 182.74565025 -27.91429321 181.74275963 -27.97671509 180.70947838 C-26.178154 171.04928232 -15.69953732 163.46040672 -8.95718384 156.77979088 C-7.75462737 155.5809712 -6.55251661 154.38170426 -5.35083008 153.18201256 C-2.20873588 150.04750239 0.93932037 146.91904894 4.0887146 143.79187584 C7.31015535 140.59100701 10.52584086 137.38436745 13.74203491 134.17822838 C20.03723949 127.90438127 26.33876631 121.63692623 32.64437866 115.37354088 C32.09015696 115.37294379 31.53593527 115.3723467 30.96491897 115.37173152 C-1.87784181 115.33584286 -34.72049352 115.27921208 -67.56316645 115.19561993 C-71.50602864 115.18560239 -75.44889125 115.17575827 -79.39175415 115.16602135 C-80.17671197 115.16407997 -80.9616698 115.1621386 -81.77041422 115.1601384 C-94.48278088 115.12911156 -107.19512948 115.11213584 -119.90752687 115.10034665 C-132.95021052 115.08793863 -145.99279936 115.06044514 -159.03542316 115.01892781 C-167.08439573 114.99378236 -175.13321108 114.98042436 -183.18222348 114.9821113 C-189.3527159 114.98214456 -195.52297429 114.96119616 -201.69339561 114.93237305 C-204.22580155 114.92384016 -206.758241 114.92214694 -209.29065514 114.92773819 C-212.743989 114.93434828 -216.19636026 114.91652761 -219.64959717 114.89252281 C-220.65543952 114.90028323 -221.66128187 114.90804365 -222.6976043 114.91603923 C-228.43186461 114.84530879 -231.83485826 114.25933673 -236.35562134 110.37354088 C-240.4391695 105.84852805 -241.67191552 102.58288798 -241.57046509 96.42822838 C-240.9752813 90.73610706 -237.50530229 87.00451172 -233.35562134 83.37354088 C-230.53215202 82.43238444 -228.80237354 82.24461525 -225.87910938 82.23487568 C-224.49595011 82.22666401 -224.49595011 82.22666401 -223.08484823 82.21828645 C-221.56297691 82.21681929 -221.56297691 82.21681929 -220.01036072 82.21532249 C-218.93382317 82.21038452 -217.85728563 82.20544654 -216.74812573 82.20035893 C-213.12290777 82.18494006 -209.49770758 82.17661142 -205.87246704 82.16821861 C-203.28092288 82.15864354 -200.68938029 82.14863368 -198.09783936 82.13821983 C-192.5092016 82.11645144 -186.92056145 82.09830828 -181.33190346 82.0826149 C-173.25160466 82.05991958 -165.17133209 82.03177628 -157.09105553 82.00229562 C-143.98190871 81.95461557 -130.87275116 81.9113525 -117.76358032 81.87085533 C-105.02789475 81.83150251 -92.29221871 81.79007679 -79.55654907 81.74585533 C-78.77175741 81.74313106 -77.98696574 81.74040679 -77.17839251 81.73759996 C-73.24139355 81.72392052 -69.30439474 81.71020024 -65.367396 81.69645965 C-32.6968241 81.58248838 -0.0262324 81.47568046 32.64437866 81.37354088 C31.93694016 80.67276421 31.22950165 79.97198753 30.50062561 79.2499752 C23.82726218 72.63748697 17.16188007 66.01704581 10.50418377 59.3887825 C7.0813277 55.98156701 3.65574369 52.57719227 0.22372437 49.17920494 C-3.08966734 45.89846347 -6.39562802 42.61039932 -9.69661522 39.31717873 C-10.95584691 38.06348032 -12.21771164 36.81242073 -13.48226357 35.56408882 C-15.25614163 33.81205976 -17.02033498 32.05079096 -18.78262329 30.2871151 C-19.30482956 29.77569466 -19.82703583 29.26427422 -20.36506653 28.73735619 C-24.12133073 24.94906837 -26.92167332 21.16442227 -27.75405884 15.81104088 C-27.69117324 9.27093865 -26.9045793 4.92249884 -22.10562134 0.12354088 C-14.98884067 -4.40531954 -7.09074264 -4.89586457 0 0 Z " fill="#000000" transform="translate(395.3556213378906,157.6264591217041)"/>
</svg>
