<?xml version="1.0" encoding="UTF-8"?>
<svg version="1.1" xmlns="http://www.w3.org/2000/svg" width="512" height="512">
<path d="M0 0 C2.518448 2.40318722 2.97602214 3.73528447 3.29296875 7.234375 C3.25816406 8.39453125 3.22335937 9.5546875 3.1875 10.75 C3.14689453 12.50570312 3.14689453 12.50570312 3.10546875 14.296875 C3.07066406 15.18890625 3.03585937 16.0809375 3 17 C3.54938232 17.05534912 4.09876465 17.11069824 4.66479492 17.16772461 C7.17262423 17.42181253 9.68005761 17.67962299 12.1875 17.9375 C13.05181641 18.02451172 13.91613281 18.11152344 14.80664062 18.20117188 C18.9203025 18.6267231 22.96211191 19.07203814 27 20 C27.16435547 19.11248047 27.16435547 19.11248047 27.33203125 18.20703125 C29.12494533 9.27161394 29.12494533 9.27161394 32 6 C36.16185424 4.11538676 38.05130188 3.64863033 42.375 5.25 C45 7 45 7 46 9 C46.50030131 14.71274291 45.83950258 19.59646117 44 25 C44.59425781 25.15855469 45.18851562 25.31710938 45.80078125 25.48046875 C52.52497495 27.37328222 58.71039612 29.97477228 65 33 C65.28488281 32.24203125 65.56976563 31.4840625 65.86328125 30.703125 C67.38626069 27.08146944 69.1895584 24.74798734 72 22 C76.04741597 20.77132015 78.01190969 20.54891529 81.875 22.3125 C84 24 84 24 85 26 C85.743223 33.06061853 83.81455039 37.11469369 80 43 C80.69480469 43.22429687 81.38960938 43.44859375 82.10546875 43.6796875 C85.66127099 45.30163238 88.38790161 47.5877421 91.3125 50.125 C91.86228516 50.59292969 92.41207031 51.06085938 92.97851562 51.54296875 C94.32396409 52.68952483 95.662679 53.84397451 97 55 C97.45890625 54.59007812 97.9178125 54.18015625 98.390625 53.7578125 C99.31101562 52.94957031 99.31101562 52.94957031 100.25 52.125 C101.15492188 51.32449219 101.15492188 51.32449219 102.078125 50.5078125 C105.37415362 47.92190386 107.24800543 46.98657153 111.5 47.0625 C115 48 115 48 117.5 50.125 C119 53 119 53 119.1875 56.3125 C117.58140108 61.29985981 114.64859737 64.33234991 111 68 C111.52787109 68.69222656 111.52787109 68.69222656 112.06640625 69.3984375 C118.79153132 78.28332858 124.87302338 87.26895863 130.30078125 96.99609375 C131.97680513 100.04444614 131.97680513 100.04444614 134 103 C136.56625999 103.11692072 138.94780323 103.08174448 141.5 102.9375 C150.72879106 102.70698604 157.31881395 104.26879559 164.375 110.5625 C169.53932737 116.18680794 172.10531262 123.01126531 172.4375 130.625 C171.94659 138.98534605 169.07140917 144.90034854 163.33203125 150.98046875 C159.51964325 154.28198399 154.22747018 158 149 158 C149.02320313 159.06734375 149.04640625 160.1346875 149.0703125 161.234375 C149.26382941 174.45503004 148.91651034 188.0464901 146 201 C147.13888672 201.27263672 147.13888672 201.27263672 148.30078125 201.55078125 C149.29464844 201.80214844 150.28851563 202.05351562 151.3125 202.3125 C152.29863281 202.55613281 153.28476562 202.79976562 154.30078125 203.05078125 C157.04348349 204.01529159 158.26171035 204.71068389 160 207 C161.22143743 211.32200938 161.1942299 214.05038618 159 218 C154.93261417 220.71159055 151.77012858 220.40999452 147 220 C144.57295604 219.48718197 142.35488634 218.80166344 140 218 C139.89816406 218.82757813 139.79632813 219.65515625 139.69140625 220.5078125 C138.89055984 224.55276553 137.52079745 228.08390263 135.9375 231.875 C135.65583984 232.56335938 135.37417969 233.25171875 135.08398438 233.9609375 C134.39484734 235.64289909 133.69819202 237.32177697 133 239 C133.62648438 239.39832031 134.25296875 239.79664063 134.8984375 240.20703125 C135.71570313 240.73683594 136.53296875 241.26664063 137.375 241.8125 C138.18710937 242.33457031 138.99921875 242.85664063 139.8359375 243.39453125 C142 245 142 245 144 248 C144.42791781 251.92257996 144.63413473 254.10751408 142.3125 257.375 C139.63644946 259.25546795 138.27749873 259.9237791 135 260 C131.5 258.6875 131.5 258.6875 128 257 C126.33714995 256.32386988 124.67116711 255.65530354 123 255 C122.46890625 255.73605469 121.9378125 256.47210938 121.390625 257.23046875 C120.68421875 258.20628906 119.9778125 259.18210937 119.25 260.1875 C118.55390625 261.15042969 117.8578125 262.11335938 117.140625 263.10546875 C115.15434805 265.79129214 113.10500812 268.40666793 111 271 C112.15980277 273.84678862 113.23351342 275.21073163 115.5625 277.3125 C118.58466816 280.64463412 119 282.53714286 119 287 C117.65437601 289.94755732 116.91445456 291.54277272 114 293 C110.81980868 293.49347796 109.04414258 293.76899072 106 293 C102.95717257 290.64309808 100.4698205 287.94276485 98 285 C92.27445024 289.25906017 86.62007798 293.60280936 81 298 C82.36773041 301.53113769 82.36773041 301.53113769 84.125 304.875 C85.46128849 308.12027204 85.42614369 310.52997281 85 314 C82.875 316.9375 82.875 316.9375 80 319 C75.98135734 319.57409181 73.42549522 319.10644402 70 317 C68.515625 315.125 68.515625 315.125 67.25 313 C66.82203125 312.29875 66.3940625 311.5975 65.953125 310.875 C65 309 65 309 65 307 C63.35451172 307.74056641 63.35451172 307.74056641 61.67578125 308.49609375 C60.22147274 309.1434956 58.76703903 309.79061624 57.3125 310.4375 C56.2306543 310.92573242 56.2306543 310.92573242 55.12695312 311.42382812 C51.43453168 313.0592842 48.03533913 314.43489334 44 315 C44.495 316.175625 44.99 317.35125 45.5 318.5625 C46.96485064 322.54858397 47.64561263 325.72281633 47 330 C44.40783917 333.69186542 42.95850936 334.82883761 38.5 335.625 C33.94001093 334.81071624 32.65611969 333.7944567 30 330 C29.03207527 326.6979651 28.44354869 323.40936682 28 320 C27.26136719 320.144375 26.52273438 320.28875 25.76171875 320.4375 C18.75358778 321.71980097 12.11827723 322.25222242 5 322 C5.03480469 322.80824219 5.06960938 323.61648438 5.10546875 324.44921875 C5.14607422 326.05216797 5.14607422 326.05216797 5.1875 327.6875 C5.22230469 328.74324219 5.25710938 329.79898437 5.29296875 330.88671875 C4.96322612 334.3907838 4.05982471 336.18155692 2 339 C-0.54229606 340.92863839 -1.78345018 341.00902291 -5 340.875 C-8.54681307 339.84051285 -9.75196305 338.91091964 -12 336 C-12.390625 332.765625 -12.390625 332.765625 -12.25 329.25 C-12.21390625 328.07953125 -12.1778125 326.9090625 -12.140625 325.703125 C-12.09421875 324.81109375 -12.0478125 323.9190625 -12 323 C-12.58491211 322.94465088 -13.16982422 322.88930176 -13.77246094 322.83227539 C-16.43195108 322.57882735 -19.09096832 322.32071175 -21.75 322.0625 C-22.67039063 321.97548828 -23.59078125 321.88847656 -24.5390625 321.79882812 C-25.42851562 321.71181641 -26.31796875 321.62480469 -27.234375 321.53515625 C-28.05131836 321.456604 -28.86826172 321.37805176 -29.70996094 321.29711914 C-31.87120901 321.01670988 -33.90017313 320.57555495 -36 320 C-36.185625 321.5778125 -36.185625 321.5778125 -36.375 323.1875 C-37.0800867 327.48852887 -37.68392543 330.58643843 -40.6875 333.8125 C-44.04305003 335.53562029 -46.28017365 335.52208089 -50 335 C-53 333.125 -53 333.125 -55 330 C-55.23483881 325.15449255 -54.16935752 320.67743007 -53 316 C-59.93 313.03 -66.86 310.06 -74 307 C-74.66 308.65 -75.32 310.3 -76 312 C-79.55555556 317.77777778 -79.55555556 317.77777778 -82 319 C-86.33327174 319.49055907 -88.32000344 319.47744439 -91.9375 316.9375 C-94.61597455 313.12270292 -94.754193 311.60057731 -94 307 C-92.53583863 303.54659869 -90.84035386 300.26662811 -89 297 C-89.69480469 296.77570313 -90.38960937 296.55140625 -91.10546875 296.3203125 C-94.66127099 294.69836762 -97.38790161 292.4122579 -100.3125 289.875 C-100.86228516 289.40707031 -101.41207031 288.93914062 -101.97851562 288.45703125 C-103.32396409 287.31047517 -104.662679 286.15602549 -106 285 C-106.45890625 285.40992188 -106.9178125 285.81984375 -107.390625 286.2421875 C-108.31101563 287.05042969 -108.31101563 287.05042969 -109.25 287.875 C-109.85328125 288.40867187 -110.4565625 288.94234375 -111.078125 289.4921875 C-114.44028874 292.12998263 -116.21702505 293.04120921 -120.5625 292.8125 C-125.26339969 291.70137825 -125.26339969 291.70137825 -127 289 C-127.96575399 286.1770268 -128.10928272 284.47355844 -127.4375 281.5625 C-125.46581498 278.04775714 -122.94251267 275.75060967 -120 273 C-121.62165503 269.28958279 -123.96126231 266.4497692 -126.5 263.3125 C-130.60558477 258.11532696 -134.1545121 252.71438488 -137.5 247 C-137.92087891 246.28239502 -138.34175781 245.56479004 -138.77539062 244.82543945 C-140.80443159 241.29661841 -142.61851027 237.84414533 -144 234 C-153.10135636 239.66969741 -162.00125578 245.63804321 -170.9140625 251.59765625 C-171.76000977 252.16242676 -172.60595703 252.72719727 -173.47753906 253.30908203 C-175.17120609 254.44442251 -176.86062239 255.58612775 -178.54589844 256.73388672 C-179.74134277 257.5443042 -179.74134277 257.5443042 -180.9609375 258.37109375 C-182.02127197 259.09510376 -182.02127197 259.09510376 -183.10302734 259.83374023 C-188.46586651 263.13081651 -194.94232108 262.63727355 -201 262 C-206.37663732 259.96901317 -209.67197307 256.61722648 -213 252 C-214.16918945 248.9074707 -214.16918945 248.9074707 -215.11328125 245.42578125 C-215.37634064 244.47632629 -215.37634064 244.47632629 -215.64471436 243.50769043 C-216.2127987 241.44572678 -216.76323055 239.37954799 -217.3125 237.3125 C-217.70218756 235.8750118 -218.09274082 234.43775802 -218.48413086 233.00073242 C-219.0802163 230.80825062 -219.67446253 228.61535303 -220.26307678 226.42085266 C-221.50630175 221.78635554 -222.80354608 217.17104864 -224.140625 212.5625 C-224.78136707 210.31253334 -225.42199857 208.06253518 -226.0625 205.8125 C-226.5107312 204.30393433 -226.5107312 204.30393433 -226.96801758 202.76489258 C-229.25170759 194.56830813 -230.59863417 185.71176388 -227.8125 177.5 C-224.19782693 172.51424405 -220.69412457 169.3912602 -215 167 C-211.6875 166.65429688 -211.6875 166.65429688 -208 166.71875 C-207.31776367 166.72950562 -206.63552734 166.74026123 -205.93261719 166.75134277 C-196.27162192 166.9686186 -186.63191986 167.76200408 -177 168.5 C-175.04951909 168.64506905 -173.09899835 168.78960357 -171.1484375 168.93359375 C-166.43181114 169.28292042 -161.71577821 169.63941175 -157 170 C-157.01160156 168.7948877 -157.02320313 167.58977539 -157.03515625 166.34814453 C-157.04454355 164.73470208 -157.05364274 163.12125794 -157.0625 161.5078125 C-157.07087891 160.71737549 -157.07925781 159.92693848 -157.08789062 159.11254883 C-157.11734674 151.92893966 -156.27397993 145.07513856 -155 138 C-156.8253125 137.8453125 -156.8253125 137.8453125 -158.6875 137.6875 C-162.41390245 137.22500324 -164.95879456 136.30394352 -168 134 C-169.60551137 130.78897726 -169.46807221 127.48300792 -169 124 C-167.5625 121.5 -167.5625 121.5 -165 120 C-159.89126345 119.33111419 -155.03953668 120.10682563 -150 121 C-149.59007812 119.90300781 -149.18015625 118.80601562 -148.7578125 117.67578125 C-148.21357114 116.22134314 -147.66929867 114.76691667 -147.125 113.3125 C-146.85558594 112.59126953 -146.58617187 111.87003906 -146.30859375 111.12695312 C-144.91331397 107.40053517 -143.49797083 103.68675345 -142 100 C-142.721875 99.731875 -143.44375 99.46375 -144.1875 99.1875 C-150.95486936 96.33016627 -150.95486936 96.33016627 -153.375 93.25 C-154.32835544 89.81792041 -153.91654656 87.42177384 -153 84 C-150.875 81.5 -150.875 81.5 -148 80 C-142.27031006 80 -137.88649063 82.27118056 -133 85 C-131.39245904 82.94005539 -129.7889195 80.87719524 -128.1875 78.8125 C-127.50977539 77.9452832 -127.50977539 77.9452832 -126.81835938 77.06054688 C-124.30818834 73.81747919 -122.02756611 70.57686912 -120 67 C-120.74056641 66.36384766 -120.74056641 66.36384766 -121.49609375 65.71484375 C-124.79534038 62.69440669 -126.77158212 60.69727562 -128.1875 56.375 C-127.95895445 52.26118005 -126.91858865 50.8352004 -124 48 C-120.98221063 46.49110531 -119.37677363 46.49973724 -116 47 C-113.77169091 48.68492181 -111.81264787 50.49985301 -109.83203125 52.46875 C-108.0143075 54.32065507 -108.0143075 54.32065507 -105 54 C-103.1539374 52.61116652 -101.36917955 51.13980799 -99.625 49.625 C-96.1861988 46.64091631 -93.34345212 44.43728779 -89 43 C-89.3609375 42.35933594 -89.721875 41.71867187 -90.09375 41.05859375 C-95.04829652 31.82386955 -95.04829652 31.82386955 -94 26 C-91.84524379 22.72477055 -90.3358577 22.09770406 -86.5625 21 C-83 21 -83 21 -80.3125 22.5625 C-74 29.21621622 -74 29.21621622 -74 33 C-71.41609368 31.87630121 -68.83286292 30.75109248 -66.25 29.625 C-65.52039063 29.30789062 -64.79078125 28.99078125 -64.0390625 28.6640625 C-62.97558594 28.2 -62.97558594 28.2 -61.890625 27.7265625 C-61.24125977 27.44377441 -60.59189453 27.16098633 -59.92285156 26.86962891 C-57.92066492 25.96411991 -55.95913944 24.99481594 -54 24 C-54.350625 22.824375 -54.70125 21.64875 -55.0625 20.4375 C-56.07828496 16.34533773 -56.05446604 13.13675138 -55 9 C-53.450394 6.675591 -52.34382145 6.13370834 -49.75 5.125 C-45.64178733 4.93826306 -43.4816493 5.80785044 -40 8 C-37.95223529 11.86560497 -37 15.63775698 -37 20 C-36.27296875 19.855625 -35.5459375 19.71125 -34.796875 19.5625 C-27.44651204 18.20550991 -20.46612603 17.76171938 -13 18 C-13.03480469 17.03578125 -13.06960938 16.0715625 -13.10546875 15.078125 C-13.13253906 13.81484375 -13.15960938 12.5515625 -13.1875 11.25 C-13.22230469 9.99703125 -13.25710938 8.7440625 -13.29296875 7.453125 C-12.98522945 3.82590442 -12.59101831 2.48834393 -10 0 C-6.20519658 -1.26493447 -3.87641726 -0.89988258 0 0 Z M-97 70 C-97.94488281 70.86238281 -98.88976562 71.72476563 -99.86328125 72.61328125 C-124.96501608 96.57886967 -139.23788661 130.10645633 -140.51757812 164.59570312 C-140.86692 171.85278619 -141.63565153 178.63565153 -147 184 C-150.71664557 186.53689888 -154.60272227 186.30146773 -158.9375 186.25 C-159.74582275 186.24613281 -160.55414551 186.24226562 -161.38696289 186.23828125 C-170.47665808 186.1174322 -179.53595793 185.42540343 -188.59545898 184.71191406 C-196.0833693 184.13422093 -203.49007676 183.87608239 -211 184 C-212.55340991 186.4171613 -213.04797517 187.61818249 -212.68450928 190.51087952 C-212.28718597 191.92293922 -212.28718597 191.92293922 -211.88183594 193.36352539 C-211.58782898 194.4346608 -211.29382202 195.5057962 -210.99090576 196.60939026 C-210.65875061 197.76051804 -210.32659546 198.91164581 -209.984375 200.09765625 C-209.65334778 201.28346786 -209.32232056 202.46927948 -208.98126221 203.69102478 C-208.0981731 206.84117318 -207.20210591 209.98726182 -206.30047607 213.13214111 C-205.38861544 216.32977015 -204.49889038 219.53349975 -203.60546875 222.73632812 C-202.92050942 225.16961983 -202.23435161 227.60257455 -201.546875 230.03515625 C-201.22281677 231.18830826 -200.89875854 232.34146027 -200.56488037 233.52955627 C-200.25826477 234.59753952 -199.95164917 235.66552277 -199.63574219 236.76586914 C-199.36767761 237.70644669 -199.09961304 238.64702423 -198.82342529 239.61610413 C-198.03697577 242.2182438 -198.03697577 242.2182438 -196 245 C-192.47424687 245.72989275 -191.06710976 245.0407514 -187.9765625 243.1640625 C-186.85131091 242.32845963 -185.73455376 241.4813374 -184.625 240.625 C-183.38180955 239.70096683 -182.13696146 238.77916043 -180.890625 237.859375 C-180.25060547 237.38435547 -179.61058594 236.90933594 -178.95117188 236.41992188 C-175.21152369 233.6984762 -171.34554426 231.16679842 -167.47827148 228.6315918 C-164.51765505 226.68833749 -161.59291094 224.72556146 -158.73828125 222.62890625 C-152.665547 218.26680136 -147.68037486 215.16338774 -140 216 C-132.70130716 218.43289761 -129.82716164 224.06593455 -126.55053711 230.58618164 C-126.14198486 231.4033667 -125.73343262 232.22055176 -125.3125 233.0625 C-118.99814103 245.34620296 -110.68992762 259.20671492 -99 267 C-98.70867187 266.27296875 -98.41734375 265.5459375 -98.1171875 264.796875 C-82.01222632 225.29414003 -54.21658231 205.16287993 -17 187 C-17.20496094 186.32453125 -17.40992188 185.6490625 -17.62109375 184.953125 C-17.89050781 184.06109375 -18.15992188 183.1690625 -18.4375 182.25 C-18.70433594 181.36828125 -18.97117187 180.4865625 -19.24609375 179.578125 C-19.49488281 178.72734375 -19.74367188 177.8765625 -20 177 C-20.28810547 176.03707031 -20.28810547 176.03707031 -20.58203125 175.0546875 C-22.98195716 163.25692086 -20.08694364 152.26016514 -13.71484375 142.3203125 C-8.17054144 134.8184547 -0.98528723 130.42903698 8 128 C24.36849293 125.85022097 43.18213187 132.68209553 56.75 141.9375 C61.93337507 146.26270039 63.9734114 151.40417417 64.75 158 C64.83862457 159.33299209 64.92285514 160.6662943 65 162 C80.60819865 158.39063475 96.0965105 154.39589981 111.57836914 150.2824707 C114.66863686 149.46237761 117.76108983 148.65139924 120.85571289 147.84790039 C124.63979038 146.86530178 128.41944826 145.86717611 132.19649696 144.85790825 C133.62192141 144.47975847 135.04878319 144.10698078 136.47710228 143.73991585 C146.77686562 141.28384678 146.77686562 141.28384678 155 135 C156.19389536 131.06716823 156.44799464 129.03746128 154.8125 125.25 C152.89931134 122.87500718 151.65839126 121.50238073 149 120 C146.20338747 119.88767468 143.59240826 119.91208775 140.8125 120.0625 C134.2664775 120.23024009 128.38608452 120.23192355 123 116 C119.15899372 111.84494919 116.58983404 107.62091732 114 102.625 C97.56689931 72.30681272 68.02127174 49.50952502 35.1796875 39.61279297 C-11.93495472 26.36707702 -60.8460035 36.68811263 -97 70 Z M-0.703125 153.12109375 C-4.55283073 158.69852887 -4.83586 164.43629936 -4 171 C-1.711158 178.43075216 2.27348795 183.19052981 9 187 C13.53957882 189.08064029 18.0487339 189.744624 23 189 C32.08720536 185.19989594 38.42679537 177.15701046 44.125 169.375 C45.27355469 167.80878906 45.27355469 167.80878906 46.4453125 166.2109375 C48.37287761 162.22988595 48.19176924 160.21625924 47 156 C44.89479319 153.41903798 42.74159559 152.257321 39.69140625 150.9921875 C38.44713867 150.47205078 38.44713867 150.47205078 37.17773438 149.94140625 C35.88319336 149.41353516 35.88319336 149.41353516 34.5625 148.875 C33.27375977 148.33552734 33.27375977 148.33552734 31.95898438 147.78515625 C18.84079976 142.35062515 9.12368314 141.73573271 -0.703125 153.12109375 Z M123.16430664 163.51293945 C121.93865494 163.84360916 120.71300323 164.17427887 119.45021057 164.51496887 C118.10351088 164.88101813 116.7568265 165.24712372 115.41015625 165.61328125 C114.02694943 165.98745438 112.64368334 166.36140845 111.26036072 166.7351532 C107.60611387 167.72310372 103.95269752 168.71409244 100.29943848 169.70568848 C96.62135271 170.70343824 92.94247433 171.69825608 89.26367188 172.69335938 C79.33194795 175.37914437 79.33194795 175.37914437 69.4046936 178.08137512 C67.18397605 178.68054986 64.95908994 179.26454291 62.72982788 179.83110046 C61.74382599 180.0847084 60.7578241 180.33831635 59.74194336 180.59960938 C58.88523544 180.81379517 58.02852753 181.02798096 57.14585876 181.24865723 C53.84184196 182.40551302 52.40577349 184.32480211 50.5 187.1875 C44.22555845 195.64289717 35.47279938 202.6564365 25 205 C16.51448772 205.89028326 9.22051377 205.38555038 1.3671875 201.97265625 C-2.27514056 200.47605611 -4.79212653 199.61334647 -8.64038086 200.84521484 C-9.57245361 201.29590332 -10.50452637 201.7465918 -11.46484375 202.2109375 C-12.50560059 202.70940186 -13.54635742 203.20786621 -14.61865234 203.72143555 C-15.71387207 204.26711182 -16.8090918 204.81278809 -17.9375 205.375 C-19.0610791 205.92647705 -20.1846582 206.4779541 -21.34228516 207.04614258 C-47.62375559 220.14132274 -72.28644539 239.28166463 -82 268 C-83.50573686 272.56283896 -84.48028693 276.30008901 -83 281 C-66.81222534 298.04799457 -33.10304428 305.58444683 -10.6015625 306.203125 C28.17535791 306.71151552 62.51728874 294.39486809 90.82983398 267.50317383 C113.92844171 244.98532338 130.06669549 212.0851734 131.07788086 179.48950195 C131.09779212 176.82557214 131.0876674 174.163872 131.0625 171.5 C131.05573242 170.12328125 131.05573242 170.12328125 131.04882812 168.71875 C131.03716326 166.47909609 131.02079614 164.23958455 131 162 C128.2244424 162 125.84581193 162.78662483 123.16430664 163.51293945 Z " fill="#000000" transform="translate(277,94)"/>
<path d="M0 0 C6.29741708 3.97145556 9.85257099 9.17288486 11.56640625 16.3828125 C12.62134604 23.46756602 11.56985709 29.93947052 7.70703125 36.04296875 C3.80172943 40.95338846 -1.5881388 45.2228047 -8 46 C-15.5244093 46.64865597 -22.15668839 45.18836525 -28.0859375 40.26953125 C-33.32054914 34.73674553 -35.57098924 29.00410039 -36.375 21.5 C-35.47249885 13.07665591 -32.6325625 6.49200969 -26 1 C-17.2709947 -3.97399178 -9.06836177 -4.25330242 0 0 Z M-19 18 C-20.29779083 20.68210104 -20.07345798 21.74289708 -19.25 24.625 C-18.09230617 27.28364637 -18.09230617 27.28364637 -15 29 C-11.31743715 28.8684799 -8.90251763 28.73329557 -6 26.375 C-4.51589834 22.85025855 -4.94345011 20.63189024 -6 17 C-11.22562338 12.73699146 -14.28609286 13.53419323 -19 18 Z " fill="#000000" transform="translate(351,169)"/>
<path d="M0 0 C4.45850936 0.79616239 5.90783917 1.93313458 8.5 5.625 C9.125 9.125 9.125 9.125 8.5 12.625 C5.90783917 16.31686542 4.45850936 17.45383761 0 18.25 C-4.45850936 17.45383761 -5.90783917 16.31686542 -8.5 12.625 C-9.125 9.125 -9.125 9.125 -8.5 5.625 C-5.90783917 1.93313458 -4.45850936 0.79616239 0 0 Z " fill="#000000" transform="translate(170.5,285.375)"/>
<path d="M0 0 C2.375 1.5625 2.375 1.5625 4 4 C4.5596966 6.78134945 4.5596966 9.21865055 4 12 C1.95694308 15.06458538 0.55920198 15.82153128 -2.9375 16.9375 C-6.65042412 17.01327396 -8.12800603 16.3135507 -11 14 C-13.13272462 11.28562321 -12.99745956 9.95173167 -12.8125 6.4375 C-11.73913043 1.89632107 -11.73913043 1.89632107 -9 0 C-5.41563853 -1.19478716 -3.63093708 -0.96330984 0 0 Z " fill="#000000" transform="translate(187,186)"/>
<path d="M0 0 C3.38677089 2.45000447 4.78698584 3.86392446 5.5625 8 C4.87642343 11.65907504 3.57265686 13.35167676 1 16 C-1.88861709 17.44430855 -3.79647701 17.37688506 -7 17 C-9.87459336 15.00028288 -11.62907801 13.51060972 -12.484375 10.02734375 C-12.73357225 6.32399572 -12.29743405 4.36052612 -9.9375 1.5 C-6.22693494 -0.39475662 -4.11629392 -0.66154724 0 0 Z " fill="#000000" transform="translate(238,200)"/>
<path d="M0 0 C2.4375 1.0625 2.4375 1.0625 4 3 C5.07845965 6.88245475 5.39223942 9.0710119 3.8125 12.8125 C1.85980888 15.16919618 0.94024566 16.18326509 -2 17 C-8.10031239 16.67893093 -8.10031239 16.67893093 -10.6875 14.7265625 C-12.78457873 11.96790536 -12.47645642 9.51926964 -12.33984375 6.1640625 C-12 4 -12 4 -10.5 1.4375 C-6.95029444 -0.6035807 -3.99911139 -0.65693822 0 0 Z " fill="#000000" transform="translate(259,334)"/>
<path d="M0 0 C2.82847039 2.60517009 3.8665852 4.1995112 4.5 8 C3.84823663 11.91058019 3.06862356 13.45528778 0 16 C-4.29865635 16.90705593 -7.75427109 16.72920717 -11.5625 14.5 C-13.588855 10.97590435 -13.82357998 7.97112327 -13 4 C-9.37724092 -0.87198634 -5.73681918 -1.63909119 0 0 Z " fill="#000000" transform="translate(372,292)"/>
<path d="M0 0 C2.5 1.5 2.5 1.5 4 4 C4.54765177 6.78389652 4.56555682 9.21791747 4 12 C2.09496794 14.75171298 0.7143524 15.71801879 -2.375 16.9375 C-6.10339799 17.02627138 -7.96692553 16.15685296 -11 14 C-12.5625 10.6875 -12.5625 10.6875 -13 7 C-10.43477033 0.07387988 -7.16334576 -0.97681988 0 0 Z " fill="#000000" transform="translate(291,176)"/>
<path d="M0 0 C2.72235378 1.934304 3.75092091 3.30613681 4.875 6.4375 C5.02932606 9.60118415 4.58872546 11.25583784 3 14 C0.14126272 16.38228107 -1.32477184 17.01378017 -5.0625 16.9375 C-8.52366286 15.83287356 -9.94502229 15.00342896 -12 12 C-12.72125695 7.59231863 -12.52001338 5.74062512 -9.9375 2.0625 C-6.25937488 -0.52001338 -4.40768137 -0.72125695 0 0 Z " fill="#000000" transform="translate(233,253)"/>
<path d="M0 0 C2.61163289 0.57715644 3.5136766 1.35502103 5.12109375 3.46875 C6.14847046 7.43148876 6.52681844 9.58001973 4.80859375 13.34375 C3.12109375 15.46875 3.12109375 15.46875 1.12109375 16.46875 C-3.25252639 16.96387681 -5.19845869 16.96098866 -8.81640625 14.34375 C-10.87890625 11.46875 -10.87890625 11.46875 -11.44140625 8.46875 C-10.0987153 1.30773162 -6.71372447 -0.09057301 0 0 Z " fill="#000000" transform="translate(247.87890625,141.53125)"/>
<path d="M0 0 C2.1640625 0.375 2.1640625 0.375 4.7265625 1.875 C6.76552582 5.42102317 6.94956768 8.38201533 6.1640625 12.375 C4.6640625 14.875 4.6640625 14.875 2.1640625 16.375 C-1.85692027 17.166013 -4.80004777 16.99653384 -8.3359375 14.875 C-10.46623462 11.32450481 -10.48117263 8.41185567 -9.8359375 4.375 C-8.035509 -0.42614266 -4.60793466 -0.24015295 0 0 Z " fill="#000000" transform="translate(331.8359375,345.625)"/>
</svg>
