<?xml version="1.0" encoding="UTF-8"?>
<svg version="1.1" xmlns="http://www.w3.org/2000/svg" width="1706" height="436">
<path d="M0 0 C0.9590625 0.83917969 0.9590625 0.83917969 1.9375 1.6953125 C2.9275 2.47261719 2.9275 2.47261719 3.9375 3.265625 C21.02019105 17.07858221 28.96321661 38.64504695 32.75 59.6328125 C32.87407227 60.28668945 32.99814453 60.94056641 33.12597656 61.61425781 C34.4395559 69.73210059 33.9375 77.24307288 33.9375 85.6953125 C2.5875 85.6953125 -28.7625 85.6953125 -61.0625 85.6953125 C-63.0425 77.7753125 -63.0425 77.7753125 -65.0625 69.6953125 C-66.46242452 64.91341801 -66.46242452 64.91341801 -68.6875 63.5078125 C-76.69405587 60.7687276 -83.90624106 59.45346079 -91.9375 62.9453125 C-96.80961295 66.95764081 -99.59372168 71.33723702 -100.46875 77.60546875 C-100.98636284 95.01020049 -89.19315853 106.61438135 -77.99609375 118.60546875 C-70.69289182 126.34159878 -63.19551123 133.82775232 -55.0625 140.6953125 C-54.02531535 141.58378823 -52.98892845 142.47319567 -51.953125 143.36328125 C-47.13422286 147.50303217 -42.31032712 151.6367783 -37.46875 155.75 C-30.80443288 161.42082151 -24.25766322 167.18820967 -17.83984375 173.13671875 C-15.3811859 175.40172704 -12.88615072 177.61405698 -10.375 179.8203125 C16.95317132 204.4554007 36.109263 230.75331717 38.9375 268.6953125 C40.23572913 300.94473305 36.9412944 333.34618747 14.9375 358.6953125 C14.28394531 359.49195313 13.63039063 360.28859375 12.95703125 361.109375 C-7.75909941 385.48573275 -39.00216326 395.50413792 -69.96557617 398.12890625 C-105.62762497 400.87284749 -141.8537232 394.94388828 -170.0625 371.6953125 C-192.91043148 351.93677443 -202.28622773 322.15237444 -204.6875 292.8828125 C-205.1784309 282.16415451 -205.0625 271.4252073 -205.0625 260.6953125 C-172.0625 260.6953125 -139.0625 260.6953125 -105.0625 260.6953125 C-104.5675 276.0403125 -104.5675 276.0403125 -104.0625 291.6953125 C-101.77572734 303.41283124 -101.77572734 303.41283124 -94.5625 311.5078125 C-88.30134841 314.48185951 -81.37793979 314.70872697 -74.8125 312.5078125 C-68.74513362 309.8954742 -65.25050055 305.49500774 -62.79296875 299.4765625 C-59.57462636 287.22276687 -62.79301225 276.31888523 -68.75 265.6328125 C-74.50477436 256.54026902 -81.98539231 249.6365239 -90.38427734 243.03222656 C-93.01524143 240.9363349 -95.59741895 238.78223805 -98.18652344 236.63500977 C-104.16607241 231.6767336 -110.18150442 226.77770976 -116.3125 222.0078125 C-121.44352923 218.01457768 -126.44626462 213.89694571 -131.38647461 209.67016602 C-134.66788451 206.86372985 -137.99789397 204.13691641 -141.375 201.4453125 C-148.35046677 195.76879629 -154.83374891 189.56037963 -161.33007812 183.34863281 C-162.72727635 182.01523 -164.13539181 180.69327204 -165.546875 179.375 C-187.70297837 158.19376517 -199.10068597 126.97154559 -200.0625 96.6953125 C-200.10246094 95.63828125 -200.14242187 94.58125 -200.18359375 93.4921875 C-200.78641342 62.42924449 -192.24887249 32.23634738 -170.6015625 9.24316406 C-152.5150855 -8.94659866 -128.06427875 -17.96621649 -103.0625 -21.3046875 C-102.06536987 -21.44608154 -102.06536987 -21.44608154 -101.0480957 -21.59033203 C-68.22410334 -25.80404468 -26.39017759 -22.29170304 0 0 Z " fill="#231F20" transform="translate(766.0625,28.3046875)"/>
<path d="M0 0 C14.97686306 -0.02332977 29.95372472 -0.04097956 44.93060207 -0.05181217 C51.88416081 -0.05697496 58.83770827 -0.06401734 65.79125977 -0.07543945 C72.49557209 -0.08644694 79.19987025 -0.09227621 85.90419197 -0.09487724 C88.46837613 -0.09673202 91.03255962 -0.10035364 93.59673882 -0.10573006 C97.17445158 -0.11293659 100.75211519 -0.11399111 104.32983398 -0.11352539 C105.40157364 -0.11712067 106.47331329 -0.12071594 107.57752991 -0.12442017 C108.54653229 -0.1230455 109.51553467 -0.12167084 110.51390076 -0.12025452 C111.36102851 -0.12117631 112.20815626 -0.1220981 113.08095455 -0.12304783 C115 0 115 0 116 1 C116.32948531 3.46468298 116.5986843 5.91270381 116.83242798 8.38711548 C116.91001449 9.17091941 116.987601 9.95472335 117.06753862 10.76227891 C117.32874246 13.4122466 117.58351927 16.06279409 117.83837891 18.71337891 C118.02382637 20.60819194 118.20966754 22.50296648 118.39587402 24.39770508 C118.90439511 29.58368198 119.40737117 34.77018404 119.90945482 39.95678759 C120.44212119 45.44924091 120.97992371 50.94119126 121.5171814 56.43319702 C122.5429641 66.92698607 123.56423966 77.4212087 124.58387792 87.91559637 C125.82702246 100.70840879 127.07552274 113.50069722 128.32421875 126.29296875 C128.76866056 130.84673635 129.2130513 135.40050893 129.65740967 139.95428467 C129.76665921 141.07385205 129.87590875 142.19341943 129.98846889 143.3469131 C130.75425025 151.19549507 131.5190929 159.04416818 132.2835083 166.8928833 C135.82622688 203.26483955 139.40065223 239.63360565 143 276 C143.07294785 274.90276611 143.14589569 273.80553223 143.22105408 272.67504883 C143.90998265 262.31721037 144.60135417 251.95953746 145.2950964 241.60202026 C145.65164781 236.27756677 146.00734871 230.95305935 146.36108398 225.62841797 C146.70270893 220.48654738 147.04659662 215.3448326 147.39203072 210.20321655 C147.52319925 208.24495792 147.65356265 206.28664517 147.78309441 204.32827759 C147.96514042 201.57807765 148.15008985 198.82808683 148.33569336 196.078125 C148.41445709 194.87294472 148.41445709 194.87294472 148.49481201 193.64341736 C148.82996275 188.73272204 149.34832008 183.87908661 150 179 C167.17549649 178.25965807 184.3441178 177.77254823 201.53320312 177.49731445 C205.2617877 177.4373103 208.99026079 177.3722796 212.71875 177.30664062 C227.14726854 177.06088642 241.56947777 176.9416181 256 177 C257.73676094 180.47352188 256.52126665 184.45732035 256.06399536 188.21775818 C255.95121589 189.18515224 255.83843641 190.1525463 255.72223938 191.14925534 C255.34033589 194.41198348 254.94967495 197.67360426 254.55908203 200.93530273 C254.28447848 203.26561523 254.01040224 205.59598992 253.73681641 207.92642212 C252.99024895 214.2720156 252.23602991 220.61667882 251.48031092 226.96118808 C250.77131024 232.91739382 250.06858872 238.87434266 249.36516331 244.83120883 C247.97096293 256.63587382 246.570847 268.43982973 245.16748047 280.2434082 C243.80491862 291.70381741 242.44670032 303.16473044 241.09326172 314.6262207 C241.00992852 315.331917 240.92659533 316.03761329 240.84073688 316.76469433 C240.71595617 317.82138552 240.71595617 317.82138552 240.58865464 318.89942402 C239.1271886 331.27535554 237.66204567 343.65084885 236.19491196 356.0261097 C235.56951362 361.30145503 234.94522463 366.57692993 234.32178116 371.85250664 C233.58772784 378.06206972 232.85044979 384.27124164 232.11064148 390.48012161 C231.83904602 392.76372553 231.5685378 395.04745906 231.29917526 397.33132744 C230.93238332 400.43966297 230.56169892 403.54750955 230.18997192 406.65525818 C230.02989818 408.02333615 230.02989818 408.02333615 229.86659062 409.41905206 C229.7664478 410.24935656 229.66630497 411.07966106 229.56312752 411.9351263 C229.43529796 413.01171596 229.43529796 413.01171596 229.30488598 414.11005491 C229 416 229 416 228 419 C206.50394484 419.02332692 185.00789175 419.04097815 163.51182652 419.05181217 C153.53156169 419.05697557 143.55130471 419.0640191 133.57104492 419.07543945 C124.8755386 419.08538496 116.18003795 419.09185311 107.4845261 419.09408849 C102.87736269 419.09539583 98.27021554 419.09848312 93.66305733 419.10573006 C89.33181408 419.11248817 85.00059388 419.11461739 80.66934586 419.11310768 C79.07494545 419.1133841 77.48054432 419.11539047 75.88614845 419.11920547 C73.71883429 419.12413947 71.55160857 419.1229994 69.3842926 419.12025452 C67.56052518 419.12163721 67.56052518 419.12163721 65.69991398 419.12304783 C63 419 63 419 62 418 C61.48410564 415.10629954 61.02521226 412.22092213 60.59861755 409.31358337 C60.45954898 408.38857952 60.32048041 407.46357566 60.17719764 406.51054138 C59.70718464 403.37731734 59.24316312 400.24323427 58.77905273 397.10913086 C58.44338385 394.86315456 58.10734753 392.61723315 57.7709713 390.37136269 C56.84817255 384.20300882 55.93054303 378.03389524 55.01371217 371.86465192 C54.13699975 365.97100996 53.25636294 360.07795498 52.37574434 354.18489572 C50.59724077 342.28241272 48.82244174 330.37938027 47.04986572 318.47601318 C44.55530105 301.72445625 42.05623467 284.97357315 39.55588067 268.22287947 C38.68658347 262.39912875 37.81735803 256.57536732 36.94812977 250.75160632 C36.73104902 249.29719137 36.51396533 247.84277686 36.2968787 246.3883628 C34.77618655 236.20015694 33.25618856 226.01184775 31.73665559 215.82346895 C26.70410418 182.08125675 21.65717709 148.34125602 16.5810492 114.60556626 C15.99740226 110.72638291 15.41400235 106.84716243 14.83060151 102.96794206 C12.46065772 87.20979365 10.0896805 71.4518033 7.71222907 55.69478565 C6.76732809 49.43129507 5.82442105 43.16750644 4.88312978 36.90347236 C4.25252109 32.70767313 3.61950346 28.51224822 2.98439723 24.31712753 C2.52062121 21.24871686 2.06062637 18.1797393 1.60009766 15.11083984 C1.4352912 14.02755874 1.27048475 12.94427763 1.10068417 11.82816982 C0.95374898 10.84406659 0.80681379 9.85996336 0.65542603 8.84603882 C0.52779688 7.99973089 0.40016773 7.15342297 0.26867104 6.28146935 C0 4 0 4 0 0 Z " fill="#231F20" transform="translate(1007,7)"/>
<path d="M0 0 C36.63 0 73.26 0 111 0 C111.06622335 42.846165 111.12158232 85.69228145 111.15319599 128.53848304 C111.15694779 133.60491977 111.16083079 138.6713564 111.16479492 143.73779297 C111.16558185 144.74636517 111.16636878 145.75493737 111.16717956 146.79407236 C111.18020855 163.092391 111.20384849 179.39067767 111.23145839 195.68897739 C111.25958251 212.4313357 111.27619103 229.17367734 111.28226548 245.9160583 C111.28636743 256.23441999 111.29928997 266.55269128 111.3237494 276.87102512 C111.33969323 283.96120386 111.34438094 291.05133634 111.34050413 298.14153168 C111.33859594 302.22295827 111.34137444 306.3042277 111.35761642 310.38562584 C111.47298812 340.93164375 110.77635975 374.24371786 88.48095703 397.85107422 C66.6411442 419.51338772 33.42719018 423.44164451 4.125 423.375 C3.37996216 423.37578552 2.63492432 423.37657104 1.86730957 423.37738037 C-15.04993111 423.35624394 -31.68624093 421.66107402 -48 417 C-48 390.93 -48 364.86 -48 338 C-42.555 339.485 -42.555 339.485 -37 341 C-31.58517874 342.01271792 -26.30237119 342.18297414 -20.8125 342.1875 C-20.01908203 342.19974609 -19.22566406 342.21199219 -18.40820312 342.22460938 C-12.861653 342.35185757 -12.861653 342.35185757 -8 340 C0.1319297 327.66923078 -0.85358788 309.91662078 -0.84178162 295.82611084 C-0.83684364 294.55404006 -0.83190566 293.28196929 -0.82681805 291.97135091 C-0.81337438 288.47537995 -0.8058591 284.97941859 -0.79939139 281.48342872 C-0.79132611 277.70036191 -0.77764982 273.91731468 -0.76467896 270.13426208 C-0.7430024 263.59141408 -0.72482604 257.04856401 -0.70907402 250.50569916 C-0.68629453 241.04598892 -0.65816324 231.58630044 -0.62875474 222.12660876 C-0.58117742 206.77631002 -0.53788676 191.42600233 -0.49731445 176.07568359 C-0.45790919 161.17040309 -0.41647104 146.2651305 -0.37231445 131.35986328 C-0.36959018 130.44003433 -0.36686591 129.52020538 -0.36405908 128.57250282 C-0.35037878 123.95767232 -0.33665867 119.34284193 -0.32291877 114.72801161 C-0.20910903 76.48535666 -0.10305947 38.24268572 0 0 Z " fill="#242121" transform="translate(873,7)"/>
<path d="M0 0 C2.70188875 1.07065498 5.38954755 2.16475132 8.06640625 3.296875 C65.82026793 27.30183203 133.32869962 31.51903697 194.8828125 37.49072266 C196.3581974 37.63438263 196.3581974 37.63438263 197.86338806 37.78094482 C199.68910808 37.9576684 201.5150736 38.13188216 203.34132385 38.30303955 C207.28410963 38.68209548 211.13143827 39.11077734 215 40 C215.05945801 40.67764404 215.11891602 41.35528809 215.18017578 42.0534668 C217.61013317 68.59280804 223.13677048 92.61989154 239.1171875 114.36328125 C240.6799774 116.55183557 241.8424389 118.59231134 243 121 C242.11766693 121.08468033 241.23533386 121.16936066 240.32626343 121.25660706 C118.30821651 126.92793712 118.30821651 126.92793712 4.07421875 163.06640625 C2 164 2 164 -1 163 C-1.90380859 161.30786133 -1.90380859 161.30786133 -2.6484375 159.08203125 C-2.92921143 158.25082764 -3.20998535 157.41962402 -3.49926758 156.56323242 C-3.78825928 155.65549072 -4.07725098 154.74774902 -4.375 153.8125 C-4.67881592 152.87575439 -4.98263184 151.93900879 -5.2956543 150.97387695 C-20.15579139 103.92786483 -22.19910621 45.22040153 0 0 Z " fill="#FFCF03" transform="translate(346,83)"/>
<path d="M0 0 C37.95 0 75.9 0 115 0 C115 11.25027566 115 11.25027566 114.43727112 16.01049805 C114.25012039 17.62967888 114.25012039 17.62967888 114.05918884 19.28157043 C113.92049881 20.43001938 113.78180878 21.57846832 113.63891602 22.76171875 C113.49421875 23.99866989 113.34952148 25.23562103 113.20043945 26.51005554 C112.80593503 29.87160136 112.40628073 33.23245295 112.00399518 36.59307098 C111.58296857 40.1190581 111.16800766 43.64575975 110.75218201 47.17236328 C110.05423667 53.08365466 109.35168894 58.9943848 108.64624023 64.90478516 C107.83045045 71.74003725 107.02149007 78.5760711 106.21623665 85.41257191 C105.44024973 91.99964328 104.65999901 98.58620236 103.87760735 105.17251587 C103.54498601 107.97296099 103.21377342 110.77356743 102.8836689 113.5743103 C102.42369804 117.47455156 101.95744377 121.37402717 101.49047852 125.2734375 C101.35381271 126.43808029 101.21714691 127.60272308 101.07633972 128.80265808 C100.94875275 129.85955338 100.82116577 130.91644867 100.68971252 132.00537109 C100.58001916 132.92708099 100.47032579 133.84879089 100.35730839 134.7984314 C100 137 100 137 99 139 C82.49457417 139.06777461 66.0021261 138.88351498 49.5 138.5625 C47.74329987 138.52940231 47.74329987 138.52940231 45.95111084 138.49563599 C27.62801972 138.14940162 9.31341731 137.69185525 -9 137 C-8.40177181 120.71935903 -7.5159927 104.47590418 -6.40625 88.22265625 C-6.25292153 85.94682719 -6.09980927 83.67098356 -5.94689941 81.39512634 C-5.6294477 76.68003308 -5.30993439 71.96508591 -4.98876953 67.25024414 C-4.57847703 61.22554148 -4.17271884 55.20054366 -3.76837921 49.17543888 C-3.45418181 44.4989555 -3.13801402 39.82260701 -2.82121277 35.14629936 C-2.67079972 32.92369483 -2.52089896 30.70105557 -2.37153625 28.4783802 C-2.16304312 25.38136608 -1.95198757 22.28453685 -1.74023438 19.18774414 C-1.67994553 18.2853299 -1.61965668 17.38291565 -1.55754089 16.45315552 C-1.49871231 15.60039536 -1.43988373 14.74763519 -1.37927246 13.86903381 C-1.30517277 12.77783784 -1.30517277 12.77783784 -1.22957611 11.66459751 C-0.89396438 7.76928729 -0.4317587 3.88582827 0 0 Z " fill="#232020" transform="translate(1169,7)"/>
<path d="M0 0 C0.93316418 0.01655073 1.86632835 0.03310146 2.82777023 0.05015373 C4.44030339 0.07509737 4.44030339 0.07509737 6.08541298 0.10054493 C7.88358813 0.13625268 7.88358813 0.13625268 9.71809006 0.17268181 C10.98441332 0.19388116 12.25073658 0.21508051 13.55543327 0.23692226 C17.10832346 0.29666051 20.66106581 0.36297804 24.21381712 0.43041587 C27.28731272 0.48796736 30.36086821 0.54185314 33.43443048 0.59570807 C41.94103729 0.74476384 50.4474906 0.90140534 58.95389974 1.06131047 C65.36145206 1.18174554 71.76903848 1.30019101 78.17664719 1.41758537 C191.00676034 3.48824856 303.82912981 5.99105193 480.73433745 10.14731032 C486.86639453 10.2969072 492.99849984 10.44440211 499.13062668 10.59110832 C506.41986026 10.76565178 513.70899224 10.94388268 520.99801052 11.12720591 C524.65000274 11.21903394 528.30201358 11.3094508 531.95413971 11.39580536 C535.85281262 11.48809775 539.75126866 11.58796577 543.64973068 11.68879509 C544.79241346 11.71475982 545.93509624 11.74072454 547.11240578 11.76747608 C548.64920588 11.80916589 548.64920588 11.80916589 550.21705246 11.85169792 C551.10597057 11.87377941 551.99488869 11.8958609 552.91074371 11.91861153 C554.90851974 12.09016228 554.90851974 12.09016228 555.90851974 13.09016228 C556.04133224 14.90266228 556.04133224 14.90266228 556.03351974 17.09016228 C556.03609787 17.81203728 556.03867599 18.53391228 556.04133224 19.27766228 C555.90851974 21.09016228 555.90851974 21.09016228 554.90851974 22.09016228 C552.09932493 22.31985363 549.31403104 22.47406868 546.49885178 22.58698845 C545.53979998 22.62765277 544.58074818 22.66831709 543.5926342 22.71021366 C526.92194961 23.37168646 510.23752768 23.68800844 493.5586791 24.06982923 C489.34003762 24.16674684 485.12143631 24.26535778 480.9028331 24.3639254 C468.26644981 24.65908559 455.62995336 24.94918235 442.99341965 25.23782158 C436.97899849 25.37522247 430.96459477 25.51337024 424.9501965 25.65176928 C351.27220233 27.34701433 277.59210565 28.90887881 203.90851974 30.34016228 C202.29974095 30.37143801 202.29974095 30.37143801 200.65846157 30.40334558 C173.50003203 30.93124878 146.34142676 31.44910552 119.18256611 31.95433891 C113.77154256 32.05510824 108.3605464 32.15724538 102.94956589 32.26029778 C76.58026184 32.7620369 50.22098761 33.25722307 23.84601974 33.15266228 C21.45604681 33.14759566 19.06607274 33.14304258 16.67609787 33.1389904 C11.08687807 33.12848598 5.49770538 33.11222821 -0.09148026 33.09016228 C-0.54391027 28.55183036 -0.98932691 24.01288675 -1.42815018 19.47321892 C-1.57854788 17.9277809 -1.73088784 16.38253065 -1.88518143 14.83747673 C-2.10615115 12.62138489 -2.32021201 10.40471983 -2.53288651 8.18781853 C-2.60366913 7.49301888 -2.67445175 6.79821922 -2.7473793 6.08236504 C-2.90328539 4.42165122 -3.00311173 2.75583574 -3.09148026 1.09016228 C-2.09148026 0.09016228 -2.09148026 0.09016228 0 0 Z " fill="#FFD00A" transform="translate(1145.091480255127,147.90983772277832)"/>
<path d="M0 0 C11.549725 24.5668331 12.63676172 51.80821177 3.46875 77.328125 C-0.43650478 87.71825239 -0.43650478 87.71825239 -3 89 C-5.00170898 88.47436523 -5.00170898 88.47436523 -7.49609375 87.55859375 C-8.43195313 87.22520996 -9.3678125 86.89182617 -10.33203125 86.54833984 C-11.86923828 85.99847412 -11.86923828 85.99847412 -13.4375 85.4375 C-71.89308504 65.41331559 -137.705219 63.57492514 -199.00341797 62.34106445 C-199.75990128 62.32490082 -200.51638458 62.30873718 -201.29579163 62.29208374 C-203.3238419 62.24954305 -205.35198254 62.21137075 -207.38012695 62.17358398 C-213.92715429 61.92759041 -220.46286376 61.43580908 -227 61 C-227 50.44 -227 39.88 -227 29 C-222.07172013 28.17862002 -217.39835536 27.76904037 -212.43359375 27.60546875 C-210.67820085 27.53923106 -208.92283072 27.47238771 -207.16748047 27.4050293 C-206.2372406 27.37017426 -205.30700073 27.33531921 -204.34857178 27.29940796 C-138.58976502 24.77149576 -67.75644903 21.91864579 -4.78125 0.8828125 C-2 0 -2 0 0 0 Z " fill="#FFCF05" transform="translate(227,120)"/>
<path d="M0 0 C0.9590625 0.83917969 0.9590625 0.83917969 1.9375 1.6953125 C2.9275 2.47261719 2.9275 2.47261719 3.9375 3.265625 C21.02019105 17.07858221 28.96321661 38.64504695 32.75 59.6328125 C32.87407227 60.28668945 32.99814453 60.94056641 33.12597656 61.61425781 C34.4395559 69.73210059 33.9375 77.24307288 33.9375 85.6953125 C2.5875 85.6953125 -28.7625 85.6953125 -61.0625 85.6953125 C-63.0425 77.7753125 -63.0425 77.7753125 -65.0625 69.6953125 C-66.46242452 64.91341801 -66.46242452 64.91341801 -68.6875 63.5078125 C-76.69405587 60.7687276 -83.90624106 59.45346079 -91.9375 62.9453125 C-96.80961295 66.95764081 -99.59372168 71.33723702 -100.46875 77.60546875 C-100.98636284 95.01020049 -89.19315853 106.61438135 -77.99609375 118.60546875 C-70.69289182 126.34159878 -63.19551123 133.82775232 -55.0625 140.6953125 C-54.02531535 141.58378823 -52.98892845 142.47319567 -51.953125 143.36328125 C-47.13422286 147.50303217 -42.31032712 151.6367783 -37.46875 155.75 C-30.80443288 161.42082151 -24.25766322 167.18820967 -17.83984375 173.13671875 C-15.3811859 175.40172704 -12.88615072 177.61405698 -10.375 179.8203125 C16.95317132 204.4554007 36.109263 230.75331717 38.9375 268.6953125 C40.23572913 300.94473305 36.9412944 333.34618747 14.9375 358.6953125 C14.28394531 359.49195313 13.63039063 360.28859375 12.95703125 361.109375 C-7.75909941 385.48573275 -39.00216326 395.50413792 -69.96557617 398.12890625 C-105.62762497 400.87284749 -141.8537232 394.94388828 -170.0625 371.6953125 C-192.91043148 351.93677443 -202.28622773 322.15237444 -204.6875 292.8828125 C-205.1784309 282.16415451 -205.0625 271.4252073 -205.0625 260.6953125 C-172.0625 260.6953125 -139.0625 260.6953125 -105.0625 260.6953125 C-104.5675 276.0403125 -104.5675 276.0403125 -104.0625 291.6953125 C-101.77572734 303.41283124 -101.77572734 303.41283124 -94.5625 311.5078125 C-88.30134841 314.48185951 -81.37793979 314.70872697 -74.8125 312.5078125 C-68.74513362 309.8954742 -65.25050055 305.49500774 -62.79296875 299.4765625 C-59.57462636 287.22276687 -62.79301225 276.31888523 -68.75 265.6328125 C-74.50477436 256.54026902 -81.98539231 249.6365239 -90.38427734 243.03222656 C-93.01524143 240.9363349 -95.59741895 238.78223805 -98.18652344 236.63500977 C-104.16607241 231.6767336 -110.18150442 226.77770976 -116.3125 222.0078125 C-121.44352923 218.01457768 -126.44626462 213.89694571 -131.38647461 209.67016602 C-134.66788451 206.86372985 -137.99789397 204.13691641 -141.375 201.4453125 C-148.35046677 195.76879629 -154.83374891 189.56037963 -161.33007812 183.34863281 C-162.72727635 182.01523 -164.13539181 180.69327204 -165.546875 179.375 C-187.70297837 158.19376517 -199.10068597 126.97154559 -200.0625 96.6953125 C-200.10246094 95.63828125 -200.14242187 94.58125 -200.18359375 93.4921875 C-200.78641342 62.42924449 -192.24887249 32.23634738 -170.6015625 9.24316406 C-152.5150855 -8.94659866 -128.06427875 -17.96621649 -103.0625 -21.3046875 C-102.06536987 -21.44608154 -102.06536987 -21.44608154 -101.0480957 -21.59033203 C-68.22410334 -25.80404468 -26.39017759 -22.29170304 0 0 Z M-169.8125 17.5703125 C-174.17072766 22.59783941 -177.74535175 27.93614305 -181.0625 33.6953125 C-181.73925781 34.86126953 -181.73925781 34.86126953 -182.4296875 36.05078125 C-187.81752573 46.04003412 -191.28265409 57.38754679 -192.0625 68.6953125 C-192.5575 69.6853125 -192.5575 69.6853125 -193.0625 70.6953125 C-193.31300516 75.3980733 -193.25750853 80.11149222 -193.25 84.8203125 C-193.24939575 85.50514709 -193.2487915 86.18998169 -193.24816895 86.89556885 C-193.22393327 96.95603223 -192.99463786 106.78068506 -191.0625 116.6953125 C-190.93891113 117.33500977 -190.81532227 117.97470703 -190.68798828 118.63378906 C-184.27412541 150.58648772 -164.27871341 173.98708491 -140.0625 194.6953125 C-139.52786133 195.15703857 -138.99322266 195.61876465 -138.44238281 196.09448242 C-131.95340032 201.6880356 -125.34608815 207.09287851 -118.58447266 212.35180664 C-113.01019445 216.70109536 -107.55956194 221.1942957 -102.11401367 225.703125 C-98.31565171 228.84647707 -94.49765151 231.95589561 -90.625 235.0078125 C-85.57549277 239.02855765 -80.79383329 243.30694241 -76.0625 247.6953125 C-75.02802734 248.61376953 -75.02802734 248.61376953 -73.97265625 249.55078125 C-69.70196882 253.51702364 -66.41740368 257.83493058 -63.25 262.6953125 C-62.87673584 263.26467529 -62.50347168 263.83403809 -62.11889648 264.4206543 C-57.14677108 272.33295642 -55.49857279 279.22335532 -55.5625 288.5703125 C-55.57216797 290.03513062 -55.57216797 290.03513062 -55.58203125 291.52954102 C-55.79532912 299.89797432 -57.16057488 305.52898588 -62.96484375 311.7265625 C-69.22878486 317.59374726 -74.88565914 320.25383358 -83.4375 320.1328125 C-84.19264893 320.12378906 -84.94779785 320.11476563 -85.72583008 320.10546875 C-92.42819154 319.89645087 -97.04942945 318.89583214 -101.7578125 313.89453125 C-112.88383411 300.05419036 -110.41152852 284.2715425 -111.0625 266.6953125 C-139.7725 266.6953125 -168.4825 266.6953125 -198.0625 266.6953125 C-198.4089972 300.91655588 -198.4089972 300.91655588 -189.0625 333.6953125 C-188.78776855 334.2948877 -188.51303711 334.89446289 -188.22998047 335.51220703 C-184.11175673 344.44921086 -179.77662374 352.39572713 -173.0625 359.6953125 C-171.97388672 360.92121094 -171.97388672 360.92121094 -170.86328125 362.171875 C-160.2419214 373.51302948 -147.63494239 380.70520424 -133.0625 385.6953125 C-132.14597656 386.01113281 -131.22945312 386.32695312 -130.28515625 386.65234375 C-115.06124553 391.53457736 -99.2344602 391.87074004 -83.375 391.8203125 C-81.53325195 391.82611328 -81.53325195 391.82611328 -79.65429688 391.83203125 C-46.51806741 391.7967236 -16.80711373 382.36064538 6.9375 358.6953125 C20.25530158 344.24929937 27.56593237 326.83334379 30.9375 307.6953125 C31.19019653 306.60041504 31.19019653 306.60041504 31.44799805 305.48339844 C37.50172334 278.72642151 32.95191503 244.73416219 18.75 221.0078125 C11.22142793 210.05422482 2.1075795 200.68953826 -7.25 191.3203125 C-7.72317657 190.84604828 -8.19635315 190.37178406 -8.68386841 189.88314819 C-14.3026265 184.2658493 -20.03128086 178.86492891 -26.0625 173.6953125 C-27.67018373 172.24085733 -29.27489715 170.78310355 -30.875 169.3203125 C-34.35934862 166.17212615 -37.91281795 163.15006214 -41.5625 160.1953125 C-46.08635854 156.53283747 -50.43505836 152.72284963 -54.73828125 148.8046875 C-56.78292335 146.94904593 -58.85034149 145.12774874 -60.9375 143.3203125 C-77.3542847 128.98872424 -93.6777146 114.15795452 -104.0625 94.6953125 C-104.68125 93.5815625 -105.3 92.4678125 -105.9375 91.3203125 C-108.42321771 83.31077764 -107.80930546 75.54936774 -104.3203125 67.94921875 C-101.2486738 62.44507115 -97.44716813 57.95900872 -91.59765625 55.35546875 C-84.64211692 53.54424202 -76.16211971 53.29259159 -69.5 56.2578125 C-61.00143885 61.50475025 -58.1075877 69.56004939 -55.0625 78.6953125 C-28.0025 78.6953125 -0.9425 78.6953125 26.9375 78.6953125 C26.9375 51.66495441 20.98387626 29.6006147 1.921875 9.578125 C-3.42368892 4.48994009 -9.3897593 0.95942934 -15.828125 -2.54296875 C-17.76220509 -3.59643508 -19.67428042 -4.69479432 -21.53125 -5.87890625 C-24.66621737 -7.64474435 -27.89312909 -8.74468252 -31.3125 -9.8046875 C-32.55515625 -10.206875 -33.7978125 -10.6090625 -35.078125 -11.0234375 C-48.16905357 -14.61470368 -60.91875771 -15.77428967 -74.44604492 -15.64086914 C-76.99495226 -15.61723431 -79.54280691 -15.62034635 -82.09179688 -15.62695312 C-115.59387544 -15.57114722 -146.08566616 -7.75968579 -169.8125 17.5703125 Z " fill="#F9CD16" transform="translate(766.0625,28.3046875)"/>
<path d="M0 0 C14.97686306 -0.02332977 29.95372472 -0.04097956 44.93060207 -0.05181217 C51.88416081 -0.05697496 58.83770827 -0.06401734 65.79125977 -0.07543945 C72.49557209 -0.08644694 79.19987025 -0.09227621 85.90419197 -0.09487724 C88.46837613 -0.09673202 91.03255962 -0.10035364 93.59673882 -0.10573006 C97.17445158 -0.11293659 100.75211519 -0.11399111 104.32983398 -0.11352539 C105.40157364 -0.11712067 106.47331329 -0.12071594 107.57752991 -0.12442017 C108.54653229 -0.1230455 109.51553467 -0.12167084 110.51390076 -0.12025452 C111.36102851 -0.12117631 112.20815626 -0.1220981 113.08095455 -0.12304783 C115 0 115 0 116 1 C116.32948531 3.46468298 116.5986843 5.91270381 116.83242798 8.38711548 C116.91001449 9.17091941 116.987601 9.95472335 117.06753862 10.76227891 C117.32874246 13.4122466 117.58351927 16.06279409 117.83837891 18.71337891 C118.02382637 20.60819194 118.20966754 22.50296648 118.39587402 24.39770508 C118.90439511 29.58368198 119.40737117 34.77018404 119.90945482 39.95678759 C120.44212119 45.44924091 120.97992371 50.94119126 121.5171814 56.43319702 C122.5429641 66.92698607 123.56423966 77.4212087 124.58387792 87.91559637 C125.82702246 100.70840879 127.07552274 113.50069722 128.32421875 126.29296875 C128.76866056 130.84673635 129.2130513 135.40050893 129.65740967 139.95428467 C129.76665921 141.07385205 129.87590875 142.19341943 129.98846889 143.3469131 C130.75425025 151.19549507 131.5190929 159.04416818 132.2835083 166.8928833 C135.82622688 203.26483955 139.40065223 239.63360565 143 276 C143.07294785 274.90276611 143.14589569 273.80553223 143.22105408 272.67504883 C143.90998265 262.31721037 144.60135417 251.95953746 145.2950964 241.60202026 C145.65164781 236.27756677 146.00734871 230.95305935 146.36108398 225.62841797 C146.70270893 220.48654738 147.04659662 215.3448326 147.39203072 210.20321655 C147.52319925 208.24495792 147.65356265 206.28664517 147.78309441 204.32827759 C147.96514042 201.57807765 148.15008985 198.82808683 148.33569336 196.078125 C148.41445709 194.87294472 148.41445709 194.87294472 148.49481201 193.64341736 C148.82996275 188.73272204 149.34832008 183.87908661 150 179 C151.98 179 153.96 179 156 179 C156.17142614 192.14890364 155.68616191 205.13467289 154.72265625 218.24609375 C154.58996929 220.11829223 154.4578558 221.99053142 154.32627869 223.86280823 C153.98242711 228.73280945 153.6305371 233.60219633 153.2769165 238.47149658 C152.91955339 243.41486705 152.57069628 248.35883772 152.22070312 253.30273438 C150.08320383 283.39515452 150.08320383 283.39515452 149 296 C145.37 296 141.74 296 138 296 C136.01035726 283.50504357 134.59344505 271.07587189 133.69970703 258.4543457 C133.20513742 251.50929276 132.56664848 244.60828104 131.74975586 237.69458008 C131.04427632 231.63904166 130.50997468 225.57487413 130 219.5 C129.05960671 208.35670681 127.87638425 197.25410493 126.53515625 186.15234375 C125.17225451 174.65427997 124.24361186 163.12709058 123.30352783 151.58850098 C122.38736523 140.36643809 121.3570511 129.17842095 120 118 C118.44823116 105.21763296 117.34681814 92.41554747 116.30352783 79.58346558 C115.505506 69.78423057 114.63110028 60.01374238 113.46875 50.25 C112.71814152 43.74896726 112.22169401 37.22044996 111.69702148 30.69799805 C111.62040283 29.77027588 111.54378418 28.84255371 111.46484375 27.88671875 C111.36610962 26.65248169 111.36610962 26.65248169 111.26538086 25.39331055 C110.9898285 22.90826935 110.49034363 20.45171817 110 18 C110 14.37 110 10.74 110 7 C76.34 7 42.68 7 8 7 C9.32 15.25 10.64 23.5 12 32 C12.59998482 36.6493032 13.18504696 41.27979111 13.6875 45.9375 C13.91721515 48.0303192 14.15010978 50.12279273 14.38671875 52.21484375 C14.52920044 53.53150024 14.52920044 53.53150024 14.67456055 54.87475586 C14.89615796 57.0478783 14.89615796 57.0478783 16 59 C16.20532132 60.34884702 16.36589844 61.7047217 16.5 63.0625 C16.62375 64.25746094 16.62375 64.25746094 16.75 65.4765625 C16.91666667 67.15885417 17.08333333 68.84114583 17.25 70.5234375 C17.3325 71.32007812 17.415 72.11671875 17.5 72.9375 C17.5721875 73.66839844 17.644375 74.39929688 17.71875 75.15234375 C17.91678044 77.0898289 17.91678044 77.0898289 19 79 C19.33121114 81.05652009 19.61352816 83.12095502 19.875 85.1875 C19.99862915 86.14402466 19.99862915 86.14402466 20.12475586 87.11987305 C20.54638199 90.38795251 20.95684986 93.6574279 21.36865234 96.92675781 C21.63188072 99.0110034 21.896542 101.0950685 22.16259766 103.17895508 C22.42739927 105.25388102 22.68883986 107.32923889 22.94677734 109.4050293 C23.06875488 110.36062744 23.19073242 111.31622559 23.31640625 112.30078125 C23.42412354 113.15841064 23.53184082 114.01604004 23.64282227 114.8996582 C23.90368172 117.04980779 23.90368172 117.04980779 25 119 C25.20532132 120.34884702 25.36589844 121.7047217 25.5 123.0625 C25.5825 123.85914063 25.665 124.65578125 25.75 125.4765625 C25.91666667 127.15885417 26.08333333 128.84114583 26.25 130.5234375 C26.3325 131.32007813 26.415 132.11671875 26.5 132.9375 C26.5721875 133.66839844 26.644375 134.39929688 26.71875 135.15234375 C26.91678044 137.0898289 26.91678044 137.0898289 28 139 C28.35021628 141.60454968 28.65885843 144.20023528 28.9375 146.8125 C29.94721311 155.80217321 31.10039716 164.74074026 32.96875 173.59765625 C34.38137283 180.58294534 35.07474926 187.64470482 35.85546875 194.72265625 C36.51579627 200.50939744 37.36723665 206.1668744 38.57177734 211.86523438 C39.08091486 214.40337486 39.36563641 216.9198304 39.5625 219.5 C39.80534797 222.87968206 39.80534797 222.87968206 41 226 C41.20532132 227.34884702 41.36589844 228.7047217 41.5 230.0625 C41.5825 230.85914063 41.665 231.65578125 41.75 232.4765625 C41.91666667 234.15885417 42.08333333 235.84114583 42.25 237.5234375 C42.3325 238.32007813 42.415 239.11671875 42.5 239.9375 C42.60828125 241.03384766 42.60828125 241.03384766 42.71875 242.15234375 C42.91678044 244.0898289 42.91678044 244.0898289 44 246 C44.20532132 247.34884702 44.36589844 248.7047217 44.5 250.0625 C44.5825 250.85914063 44.665 251.65578125 44.75 252.4765625 C44.91666667 254.15885417 45.08333333 255.84114583 45.25 257.5234375 C45.3325 258.32007813 45.415 259.11671875 45.5 259.9375 C45.60828125 261.03384766 45.60828125 261.03384766 45.71875 262.15234375 C45.91678044 264.0898289 45.91678044 264.0898289 47 266 C47.20532132 267.34884702 47.36589844 268.7047217 47.5 270.0625 C47.5825 270.85914063 47.665 271.65578125 47.75 272.4765625 C47.91666667 274.15885417 48.08333333 275.84114583 48.25 277.5234375 C48.3325 278.32007813 48.415 279.11671875 48.5 279.9375 C48.60828125 281.03384766 48.60828125 281.03384766 48.71875 282.15234375 C48.91678044 284.0898289 48.91678044 284.0898289 50 286 C50.33798355 288.20703997 50.63255252 290.42078824 50.90625 292.63671875 C51.84857644 300.04343811 52.98743656 307.41217591 54.1739502 314.78338623 C55.84453597 325.17998376 57.4661537 335.56156342 58.45507812 346.05004883 C58.76942454 349.64347628 58.76942454 349.64347628 60 353 C60.30615671 355.01578425 60.56831488 357.03827381 60.8125 359.0625 C61.8269448 367.17298615 63.1401234 375.22875598 64.50317383 383.28735352 C66.02628294 392.52555288 66.96042803 401.6438523 68 411 C144.725 411.495 144.725 411.495 223 412 C223.66 403.09 224.32 394.18 225 385 C225.33 383.68 225.66 382.36 226 381 C226.19674028 378.83585687 226.3607321 376.66860016 226.5 374.5 C226.890537 368.41878102 226.890537 368.41878102 227.47924805 366.16650391 C228.11369423 363.52699364 228.36139096 360.94568171 228.61328125 358.2421875 C228.78077881 356.49107666 228.78077881 356.49107666 228.95166016 354.70458984 C229.13027588 352.80894287 229.13027588 352.80894287 229.3125 350.875 C230.46269045 339.02672304 231.73869633 327.19797838 233.125 315.375 C233.21117584 314.63167419 233.29735168 313.88834839 233.38613892 313.12249756 C233.63204162 311.00577972 233.88172315 308.88954565 234.1328125 306.7734375 C234.27605957 305.56091309 234.41930664 304.34838867 234.56689453 303.09912109 C234.90916981 300.64994273 235.37601607 298.38350024 236 296 C236.19674028 293.83585687 236.3607321 291.66860016 236.5 289.5 C236.88898872 283.44288994 236.88898872 283.44288994 237.48976135 281.04605103 C238.34956535 277.59824703 238.5593974 274.05328432 238.90234375 270.5234375 C239.60071281 263.6207293 240.37653281 256.73383159 241.25390625 249.8515625 C241.36084808 249.01050964 241.46778992 248.16945679 241.57797241 247.30291748 C242.0151936 243.87719359 242.45566072 240.45189714 242.89819336 237.02685547 C244.07789007 227.87364988 245.21404915 218.7621392 245.76928711 209.54443359 C245.97746875 207.24848752 246.40623212 205.21937766 247 203 C247.17479674 201.00232298 247.31729963 199.00170408 247.4375 197 C247.88921466 190.56670894 248.85340795 184.34447599 250 178 C244.72 178 239.44 178 234 178 C234 177.67 234 177.34 234 177 C241.26 177 248.52 177 256 177 C257.73676094 180.47352188 256.52126665 184.45732035 256.06399536 188.21775818 C255.95121589 189.18515224 255.83843641 190.1525463 255.72223938 191.14925534 C255.34033589 194.41198348 254.94967495 197.67360426 254.55908203 200.93530273 C254.28447848 203.26561523 254.01040224 205.59598992 253.73681641 207.92642212 C252.99024895 214.2720156 252.23602991 220.61667882 251.48031092 226.96118808 C250.77131024 232.91739382 250.06858872 238.87434266 249.36516331 244.83120883 C247.97096293 256.63587382 246.570847 268.43982973 245.16748047 280.2434082 C243.80491862 291.70381741 242.44670032 303.16473044 241.09326172 314.6262207 C241.00992852 315.331917 240.92659533 316.03761329 240.84073688 316.76469433 C240.71595617 317.82138552 240.71595617 317.82138552 240.58865464 318.89942402 C239.1271886 331.27535554 237.66204567 343.65084885 236.19491196 356.0261097 C235.56951362 361.30145503 234.94522463 366.57692993 234.32178116 371.85250664 C233.58772784 378.06206972 232.85044979 384.27124164 232.11064148 390.48012161 C231.83904602 392.76372553 231.5685378 395.04745906 231.29917526 397.33132744 C230.93238332 400.43966297 230.56169892 403.54750955 230.18997192 406.65525818 C230.02989818 408.02333615 230.02989818 408.02333615 229.86659062 409.41905206 C229.7664478 410.24935656 229.66630497 411.07966106 229.56312752 411.9351263 C229.43529796 413.01171596 229.43529796 413.01171596 229.30488598 414.11005491 C229 416 229 416 228 419 C206.50394484 419.02332692 185.00789175 419.04097815 163.51182652 419.05181217 C153.53156169 419.05697557 143.55130471 419.0640191 133.57104492 419.07543945 C124.8755386 419.08538496 116.18003795 419.09185311 107.4845261 419.09408849 C102.87736269 419.09539583 98.27021554 419.09848312 93.66305733 419.10573006 C89.33181408 419.11248817 85.00059388 419.11461739 80.66934586 419.11310768 C79.07494545 419.1133841 77.48054432 419.11539047 75.88614845 419.11920547 C73.71883429 419.12413947 71.55160857 419.1229994 69.3842926 419.12025452 C67.56052518 419.12163721 67.56052518 419.12163721 65.69991398 419.12304783 C63 419 63 419 62 418 C61.48410564 415.10629954 61.02521226 412.22092213 60.59861755 409.31358337 C60.45954898 408.38857952 60.32048041 407.46357566 60.17719764 406.51054138 C59.70718464 403.37731734 59.24316312 400.24323427 58.77905273 397.10913086 C58.44338385 394.86315456 58.10734753 392.61723315 57.7709713 390.37136269 C56.84817255 384.20300882 55.93054303 378.03389524 55.01371217 371.86465192 C54.13699975 365.97100996 53.25636294 360.07795498 52.37574434 354.18489572 C50.59724077 342.28241272 48.82244174 330.37938027 47.04986572 318.47601318 C44.55530105 301.72445625 42.05623467 284.97357315 39.55588067 268.22287947 C38.68658347 262.39912875 37.81735803 256.57536732 36.94812977 250.75160632 C36.73104902 249.29719137 36.51396533 247.84277686 36.2968787 246.3883628 C34.77618655 236.20015694 33.25618856 226.01184775 31.73665559 215.82346895 C26.70410418 182.08125675 21.65717709 148.34125602 16.5810492 114.60556626 C15.99740226 110.72638291 15.41400235 106.84716243 14.83060151 102.96794206 C12.46065772 87.20979365 10.0896805 71.4518033 7.71222907 55.69478565 C6.76732809 49.43129507 5.82442105 43.16750644 4.88312978 36.90347236 C4.25252109 32.70767313 3.61950346 28.51224822 2.98439723 24.31712753 C2.52062121 21.24871686 2.06062637 18.1797393 1.60009766 15.11083984 C1.4352912 14.02755874 1.27048475 12.94427763 1.10068417 11.82816982 C0.95374898 10.84406659 0.80681379 9.85996336 0.65542603 8.84603882 C0.52779688 7.99973089 0.40016773 7.15342297 0.26867104 6.28146935 C0 4 0 4 0 0 Z " fill="#F7CC1B" transform="translate(1007,7)"/>
<path d="M0 0 C15.93310645 0.56559259 31.85454005 1.32171993 47.77734375 2.12109375 C48.81999012 2.17334736 49.86263649 2.22560097 50.9368782 2.27943802 C60.77455136 2.77269962 70.61208811 3.26864534 80.44946289 3.76782227 C86.93362414 4.09657516 93.41792846 4.42239161 99.90234375 4.74609375 C101.50067614 4.82607164 101.50067614 4.82607164 103.13129807 4.90766525 C122.13794004 5.85433076 141.14937399 6.64010761 160.16697693 7.33140564 C161.17251303 7.36921835 162.17804913 7.40703106 163.21405602 7.44598961 C165.07573015 7.51598561 166.93750896 7.58327858 168.79940224 7.64718056 C170.05112756 7.69488122 170.05112756 7.69488122 171.32814026 7.74354553 C172.39831312 7.78191576 172.39831312 7.78191576 173.49010563 7.82106113 C177.00645091 8.07175329 180.50195227 8.56274403 184 9 C184 24.51 184 40.02 184 56 C180.75731571 56.64853686 178.1373865 57.13517099 174.92674255 57.27210999 C174.1494278 57.30714127 173.37211304 57.34217255 172.57124329 57.37826538 C171.7323204 57.41207306 170.89339752 57.44588074 170.02905273 57.48071289 C169.13385925 57.5198732 168.23866577 57.55903351 167.31634521 57.59938049 C164.3555836 57.72778648 161.39461572 57.8504121 158.43359375 57.97265625 C156.3587196 58.06068564 154.28385503 58.14894105 152.20899963 58.2374115 C147.85045605 58.42233147 143.49180392 58.60437111 139.13305664 58.78442383 C133.60277563 59.0131136 128.07283167 59.24901996 122.54295254 59.48720646 C118.24881043 59.67129792 113.95450443 59.85131746 109.6601429 60.03021049 C107.62517106 60.11546981 105.59025003 60.2019522 103.5553875 60.28978157 C97.03791422 60.5697366 90.52048843 60.80331178 84 61 C83.06676533 61.03247204 82.13353065 61.06494408 81.17201614 61.09840012 C78.42728347 61.18726275 75.68340487 61.24713126 72.93774414 61.29858398 C72.11721023 61.32841653 71.29667631 61.35824907 70.45127773 61.38898563 C65.24272647 61.44510205 62.47076619 60.65951064 58.4375 57.0625 C56.94503502 55.38674985 55.46592155 53.69901862 54 52 C52.21708141 50.4853081 50.40331499 49.00627646 48.5625 47.5625 C43.72762916 43.6495325 39.12047516 39.53762314 34.54296875 35.328125 C32.42932946 33.39305738 30.29340152 31.49791703 28.125 29.625 C19.99446642 22.52533162 12.02094862 15.30537127 4.6875 7.375 C4.2133667 6.86622314 3.7392334 6.35744629 3.25073242 5.83325195 C0 2.24958014 0 2.24958014 0 0 Z " fill="#FFCF06" transform="translate(683,132)"/>
<path d="M0 0 C36.63 0 73.26 0 111 0 C111.06622335 42.846165 111.12158232 85.69228145 111.15319599 128.53848304 C111.15694779 133.60491977 111.16083079 138.6713564 111.16479492 143.73779297 C111.16558185 144.74636517 111.16636878 145.75493737 111.16717956 146.79407236 C111.18020855 163.092391 111.20384849 179.39067767 111.23145839 195.68897739 C111.25958251 212.4313357 111.27619103 229.17367734 111.28226548 245.9160583 C111.28636743 256.23441999 111.29928997 266.55269128 111.3237494 276.87102512 C111.33969323 283.96120386 111.34438094 291.05133634 111.34050413 298.14153168 C111.33859594 302.22295827 111.34137444 306.3042277 111.35761642 310.38562584 C111.47298812 340.93164375 110.77635975 374.24371786 88.48095703 397.85107422 C66.6411442 419.51338772 33.42719018 423.44164451 4.125 423.375 C3.37996216 423.37578552 2.63492432 423.37657104 1.86730957 423.37738037 C-15.04993111 423.35624394 -31.68624093 421.66107402 -48 417 C-48 390.93 -48 364.86 -48 338 C-42.555 339.485 -42.555 339.485 -37 341 C-31.58517874 342.01271792 -26.30237119 342.18297414 -20.8125 342.1875 C-20.01908203 342.19974609 -19.22566406 342.21199219 -18.40820312 342.22460938 C-12.861653 342.35185757 -12.861653 342.35185757 -8 340 C0.1319297 327.66923078 -0.85358788 309.91662078 -0.84178162 295.82611084 C-0.83684364 294.55404006 -0.83190566 293.28196929 -0.82681805 291.97135091 C-0.81337438 288.47537995 -0.8058591 284.97941859 -0.79939139 281.48342872 C-0.79132611 277.70036191 -0.77764982 273.91731468 -0.76467896 270.13426208 C-0.7430024 263.59141408 -0.72482604 257.04856401 -0.70907402 250.50569916 C-0.68629453 241.04598892 -0.65816324 231.58630044 -0.62875474 222.12660876 C-0.58117742 206.77631002 -0.53788676 191.42600233 -0.49731445 176.07568359 C-0.45790919 161.17040309 -0.41647104 146.2651305 -0.37231445 131.35986328 C-0.36959018 130.44003433 -0.36686591 129.52020538 -0.36405908 128.57250282 C-0.35037878 123.95767232 -0.33665867 119.34284193 -0.32291877 114.72801161 C-0.20910903 76.48535666 -0.10305947 38.24268572 0 0 Z M6 6 C5.98541748 15.36761719 5.97083496 24.73523438 5.95581055 34.38671875 C5.90699748 64.39911854 5.84357298 94.41147166 5.77101372 124.42382306 C5.75974628 129.08984011 5.74860771 133.75585745 5.73754883 138.421875 C5.73534514 139.35074984 5.73314146 140.27962468 5.730871 141.23664725 C5.69555034 156.25403701 5.67065672 171.27142673 5.64965298 186.28884256 C5.62784918 201.71136217 5.59475546 217.13382813 5.55129844 232.55630207 C5.52486045 242.0639167 5.50710734 251.57146454 5.50065396 261.07911408 C5.49537596 267.60910328 5.47907861 274.13900864 5.45433434 280.66895282 C5.4404015 284.42987065 5.43111745 288.19063866 5.43499184 291.95158386 C5.46907904 333.78961499 5.46907904 333.78961499 -3 344 C-8.85755144 348.39125434 -13.64382228 348.53239809 -20.8125 348.3125 C-21.74642578 348.30283203 -22.68035156 348.29316406 -23.64257812 348.28320312 C-29.85015464 348.18412314 -35.77251412 347.62274859 -42 347 C-42 368.45 -42 389.9 -42 412 C-36.21156189 413.70226997 -36.21156189 413.70226997 -30.484375 414.59765625 C-29.70835937 414.67693359 -28.93234375 414.75621094 -28.1328125 414.83789062 C-27.34648438 414.91201172 -26.56015625 414.98613281 -25.75 415.0625 C-24.1611626 415.21704126 -22.57260313 415.37447431 -20.984375 415.53515625 C-20.29053711 415.600979 -19.59669922 415.66680176 -18.88183594 415.73461914 C-17 416 -17 416 -14 417 C-11.46734686 417.12089911 -8.963206 417.18814238 -6.4296875 417.203125 C-5.67519318 417.20882507 -4.92069885 417.21452515 -4.14334106 417.22039795 C-2.53779498 417.22985144 -0.93222946 417.23638332 0.67333984 417.24023438 C3.06775979 417.249772 5.46125659 417.28071623 7.85546875 417.3125 C18.55569437 417.38549134 28.53878347 416.20170996 39 414 C40.20889893 413.75620605 41.41779785 413.51241211 42.66333008 413.26123047 C50.45563187 411.65506591 57.68534101 409.10545624 65 406 C65.86367188 405.65453125 66.72734375 405.3090625 67.6171875 404.953125 C84.169407 397.65534132 93.59419257 382.22934748 100 366 C104.37394463 352.61361302 105.30556933 338.53627398 105.24050903 324.55421448 C105.24138397 323.16770933 105.24314022 321.78120451 105.24568737 320.39470142 C105.25010835 316.63182396 105.24223067 312.86906278 105.23213124 309.1062001 C105.22342225 305.03076139 105.22642212 300.95532822 105.22793579 296.87988281 C105.22897997 289.83450859 105.22275247 282.78917168 105.21146011 275.74380684 C105.19514437 265.5576378 105.18999092 255.37148663 105.18748413 245.18530595 C105.18311652 228.65534676 105.16983286 212.12540741 105.15087891 195.59545898 C105.13249586 179.54663186 105.11835125 163.49781015 105.10986328 147.44897461 C105.10907511 145.9628816 105.10907511 145.9628816 105.10827102 144.4467665 C105.10566077 139.47613033 105.1031334 134.50549411 105.10064721 129.53485787 C105.07994381 88.35655429 105.04308982 47.17828744 105 6 C72.33 6 39.66 6 6 6 Z " fill="#FDD015" transform="translate(873,7)"/>
<path d="M0 0 C11.06534858 -0.02312283 22.13069145 -0.04091478 33.19605923 -0.05181217 C38.33359566 -0.05704113 43.47111563 -0.06413901 48.60864258 -0.07543945 C53.5623141 -0.08626787 58.51596974 -0.09227674 63.46965218 -0.09487724 C65.36397616 -0.09673157 67.25829924 -0.10035234 69.1526165 -0.10573006 C71.79634386 -0.11293989 74.44000471 -0.11399097 77.08374023 -0.11352539 C77.87495773 -0.11712067 78.66617523 -0.12071594 79.48136902 -0.12442017 C84.88594784 -0.11405216 84.88594784 -0.11405216 86 1 C86.10110353 3.9453557 86.13969279 6.8667756 86.1328125 9.8125 C86.13376923 10.69655518 86.13472595 11.58061035 86.13571167 12.49145508 C86.13639351 14.36442129 86.13453893 16.23738986 86.13037109 18.11035156 C86.12502289 20.98768388 86.13031593 23.86486008 86.13671875 26.7421875 C86.13605797 28.55729201 86.13477681 30.37239643 86.1328125 32.1875 C86.13483673 33.05415283 86.13686096 33.92080566 86.13894653 34.8137207 C86.11495009 40.88504991 86.11495009 40.88504991 85 42 C82.35261911 42.09511266 79.73140999 42.12555635 77.08374023 42.11352539 C76.25454071 42.11367142 75.42534119 42.11381744 74.5710144 42.1139679 C71.81684802 42.11326851 69.06274839 42.10547493 66.30859375 42.09765625 C64.40430234 42.09579216 62.50001045 42.09436822 60.59571838 42.09336853 C55.57332037 42.08954263 50.55095108 42.07971173 45.52856445 42.06866455 C40.4077188 42.05845198 35.28686852 42.05387124 30.16601562 42.04882812 C20.11066443 42.03808953 10.0553346 42.02101224 0 42 C-1.17141695 38.48574916 -0.7492088 36.85858741 -0.0625 33.25 C1.48047986 23.88786544 1.36733899 14.68269748 0.48950195 5.25634766 C0.39820511 4.27058746 0.30690826 3.28482727 0.21284485 2.26919556 C0.14260605 1.52036102 0.07236725 0.77152649 0 0 Z " fill="#FFD00C" transform="translate(240,144)"/>
<path d="M0 0 C37.95 0 75.9 0 115 0 C115 11.25027566 115 11.25027566 114.43727112 16.01049805 C114.25012039 17.62967888 114.25012039 17.62967888 114.05918884 19.28157043 C113.92049881 20.43001938 113.78180878 21.57846832 113.63891602 22.76171875 C113.49421875 23.99866989 113.34952148 25.23562103 113.20043945 26.51005554 C112.80593503 29.87160136 112.40628073 33.23245295 112.00399518 36.59307098 C111.58296857 40.1190581 111.16800766 43.64575975 110.75218201 47.17236328 C110.05423667 53.08365466 109.35168894 58.9943848 108.64624023 64.90478516 C107.83045045 71.74003725 107.02149007 78.5760711 106.21623665 85.41257191 C105.44024973 91.99964328 104.65999901 98.58620236 103.87760735 105.17251587 C103.54498601 107.97296099 103.21377342 110.77356743 102.8836689 113.5743103 C102.42369804 117.47455156 101.95744377 121.37402717 101.49047852 125.2734375 C101.35381271 126.43808029 101.21714691 127.60272308 101.07633972 128.80265808 C100.94875275 129.85955338 100.82116577 130.91644867 100.68971252 132.00537109 C100.58001916 132.92708099 100.47032579 133.84879089 100.35730839 134.7984314 C100 137 100 137 99 139 C91.41 139 83.82 139 76 139 C76 138.67 76 138.34 76 138 C81.61 138 87.22 138 93 138 C93.28828007 132.91478387 93.28828007 132.91478387 93.56811523 127.82910156 C93.77112114 124.42134908 94.16139881 121.29514661 95 118 C95.33121007 115.16429487 95.63309141 112.33313996 95.91015625 109.4921875 C96.59703454 102.71682757 97.3438063 95.95345514 98.18359375 89.1953125 C98.2848053 88.37962296 98.38601685 87.56393341 98.49029541 86.723526 C98.69857724 85.04933049 98.90723958 83.37518228 99.11627197 81.70108032 C100.88255213 67.53643972 102.57645108 53.37413384 103.92358398 39.16259766 C104.97366715 28.37745657 106.53090011 17.77339916 108 7 C74.34 7 40.68 7 6 7 C6 11.29 6 15.58 6 20 C5.78243617 24.20568006 5.53342398 28.39479246 5.23046875 32.59375 C5.1497966 33.76396698 5.06912445 34.93418396 4.98600769 36.13986206 C4.72406138 39.92688227 4.45594269 43.71343523 4.1875 47.5 C3.86427485 52.12776444 3.54274338 56.75564595 3.22117615 61.38352585 C3.08195834 63.38386005 2.94209437 65.38414826 2.80212402 67.38442993 C2.21990368 75.73123903 1.66541002 84.07932635 1.13671875 92.4296875 C1.00565367 94.47982017 0.87455125 96.52995045 0.7434082 98.58007812 C0.56078363 101.43821943 0.37980832 104.29640339 0.20492554 107.1550293 C-0.41124976 117.20969827 -1.20646715 127.07368454 -3 137 C-4.98 137 -6.96 137 -9 137 C-8.40177181 120.71935903 -7.5159927 104.47590418 -6.40625 88.22265625 C-6.25292153 85.94682719 -6.09980927 83.67098356 -5.94689941 81.39512634 C-5.6294477 76.68003308 -5.30993439 71.96508591 -4.98876953 67.25024414 C-4.57847703 61.22554148 -4.17271884 55.20054366 -3.76837921 49.17543888 C-3.45418181 44.4989555 -3.13801402 39.82260701 -2.82121277 35.14629936 C-2.67079972 32.92369483 -2.52089896 30.70105557 -2.37153625 28.4783802 C-2.16304312 25.38136608 -1.95198757 22.28453685 -1.74023438 19.18774414 C-1.67994553 18.2853299 -1.61965668 17.38291565 -1.55754089 16.45315552 C-1.49871231 15.60039536 -1.43988373 14.74763519 -1.37927246 13.86903381 C-1.30517277 12.77783784 -1.30517277 12.77783784 -1.22957611 11.66459751 C-0.89396438 7.76928729 -0.4317587 3.88582827 0 0 Z " fill="#F4CA1D" transform="translate(1169,7)"/>
<path d="M0 0 C10.23 0 20.46 0 31 0 C32.6152737 4.03818425 33.4476455 6.94559491 34.0703125 11.1484375 C34.24433594 12.31890625 34.41835937 13.489375 34.59765625 14.6953125 C34.77167969 15.90960938 34.94570312 17.12390625 35.125 18.375 C35.30675781 19.5815625 35.48851562 20.788125 35.67578125 22.03125 C36.52399735 27.83483382 37 33.08705719 37 39 C24.79 39.33 12.58 39.66 0 40 C0 26.8 0 13.6 0 0 Z " fill="#FFCF09" transform="translate(990,145)"/>
<path d="M0 0 C0.66 0.33 1.32 0.66 2 1 C-3.61 6.61 -9.22 12.22 -15 18 C-15 12.50089132 -9.68936771 8.76735434 -6 5 C-4.05347234 3.22256464 -2.09090037 1.6083849 0 0 Z " fill="#FFD845" transform="translate(604,30)"/>
</svg>
